<svg xmlns="http://www.w3.org/2000/svg" width="258" height="86" viewBox="0 0 258 86">
  <g id="Group_60478" data-name="Group 60478" transform="translate(-90 -412)">
    <text id="Dynamic_Contact_Tracing" data-name="Dynamic Contact Tracing" transform="translate(258 494)" fill="#fff" font-size="17" font-family="Rubik-Regular, Rubik" letter-spacing="-0.05em"><tspan x="-89.65" y="0">Dynamic Contact Tracing</tspan></text>
    <g id="Group_60477" data-name="Group 60477" transform="translate(90 412)">
      <g id="Group_8332" data-name="Group 8332" transform="translate(0 0)">
        <g id="Group_8212" data-name="Group 8212" transform="translate(0)">
          <g id="Group_190" data-name="Group 190">
            <path id="Path_7859" data-name="Path 7859" d="M32.634-70.346A18.12,18.12,0,0,1,30.857-68.8a14.524,14.524,0,0,1-2.168,1.373,13.12,13.12,0,0,1-2.515.983,10.529,10.529,0,0,1-2.847.376,17.593,17.593,0,0,1-7.24-1.474,17.328,17.328,0,0,1-5.694-4.032A18.577,18.577,0,0,1,6.664-77.6,20.459,20.459,0,0,1,5.32-85.058,20.426,20.426,0,0,1,6.664-92.53a18.612,18.612,0,0,1,3.729-6.012,17.15,17.15,0,0,1,5.694-4.018,17.742,17.742,0,0,1,7.24-1.46,14.238,14.238,0,0,1,2.9.275,10.468,10.468,0,0,1,2.4.795,10.513,10.513,0,0,1,1.994,1.243,15.71,15.71,0,0,1,1.72,1.59V-112.17a2.269,2.269,0,0,1,.564-1.561,2.142,2.142,0,0,1,1.691-.636h6.5a2.243,2.243,0,0,1,.795.159,2.665,2.665,0,0,1,.766.448,2.319,2.319,0,0,1,.564.694,1.867,1.867,0,0,1,.217.9v43.211q0,2.226-2.341,2.226H35.438a2.224,2.224,0,0,1-.9-.145,1.421,1.421,0,0,1-.535-.419,2.916,2.916,0,0,1-.39-.694q-.173-.419-.434-.968ZM15.725-85.058a10.553,10.553,0,0,0,.593,3.57,8.472,8.472,0,0,0,1.691,2.876,8.03,8.03,0,0,0,2.645,1.922,8.13,8.13,0,0,0,3.425.708,9.148,9.148,0,0,0,3.483-.665,8.877,8.877,0,0,0,2.847-1.835,9.127,9.127,0,0,0,1.951-2.76,9.052,9.052,0,0,0,.824-3.411v-.4a9.132,9.132,0,0,0-.694-3.526,9.342,9.342,0,0,0-1.922-2.948,9.109,9.109,0,0,0-2.89-2.009,8.776,8.776,0,0,0-3.6-.737,7.858,7.858,0,0,0-3.425.737,8,8,0,0,0-2.645,2.009,9.1,9.1,0,0,0-1.691,2.948A10.5,10.5,0,0,0,15.725-85.058Zm32.025-15.608a2.258,2.258,0,0,1-.014-1.98q.448-.824,1.98-.824h7.139a1.633,1.633,0,0,1,1.185.448,2.8,2.8,0,0,1,.694,1.113l8.18,23.268,8.006-23.268a2.325,2.325,0,0,1,.809-1.243,2.486,2.486,0,0,1,1.358-.318h7.428a3.052,3.052,0,0,1,1.272.217,1.335,1.335,0,0,1,.65.578,1.342,1.342,0,0,1,.13.809,3.609,3.609,0,0,1-.231.882q-1.1,2.717-2.4,5.94t-2.7,6.706q-1.4,3.483-2.847,7.081T75.571-74.19q-1.373,3.468-2.645,6.662T70.6-61.66q-1.055,2.674-1.835,4.7t-1.185,3.122l.087-.145a2.514,2.514,0,0,1-.723,1.257,1.813,1.813,0,0,1-1.272.477H58.994a2.418,2.418,0,0,1-1.778-.506,2.094,2.094,0,0,1-.477-1.489,1.323,1.323,0,0,1,.1-.578,1.147,1.147,0,0,1,.159-.26l4.538-11.793Zm63.906,22.632a2.03,2.03,0,0,1,.766-.361,3.076,3.076,0,0,1,.564-.072,1.975,1.975,0,0,1,.9.2,2.406,2.406,0,0,1,.838.867l3.237,4.885a4.358,4.358,0,0,1,.275.52,1.213,1.213,0,0,1,.13.462,1.467,1.467,0,0,1-.419,1.084,5.545,5.545,0,0,1-.91.737,21.754,21.754,0,0,1-5.188,2.645,17.76,17.76,0,0,1-5.969,1,18.8,18.8,0,0,1-5.015-.665,18.42,18.42,0,0,1-4.495-1.893,19.421,19.421,0,0,1-3.815-2.948A18.042,18.042,0,0,1,89.6-75.4a19.636,19.636,0,0,1-1.893-4.552,18.953,18.953,0,0,1-.679-5.1,19.111,19.111,0,0,1,.679-5.116A19.292,19.292,0,0,1,89.6-94.726a18.2,18.2,0,0,1,2.948-3.815,18.988,18.988,0,0,1,3.815-2.934,18.766,18.766,0,0,1,4.495-1.879,18.8,18.8,0,0,1,5.015-.665,19.382,19.382,0,0,1,5.824.838,18.056,18.056,0,0,1,5.015,2.486l-.087-.087a3.375,3.375,0,0,1,1.012.882,2.05,2.05,0,0,1,.376,1.257,2,2,0,0,1-.347,1.069L115.1-93.209a2.316,2.316,0,0,1-1.965,1.416,2.01,2.01,0,0,1-.636-.13,3.606,3.606,0,0,1-.838-.448,13.186,13.186,0,0,0-2.731-1.373,8.962,8.962,0,0,0-3.107-.535,7.631,7.631,0,0,0-3.353.737,7.891,7.891,0,0,0-2.616,2.009,9.465,9.465,0,0,0-1.691,2.948,10.278,10.278,0,0,0-.607,3.526,10.326,10.326,0,0,0,.607,3.57,8.8,8.8,0,0,0,1.691,2.876,7.913,7.913,0,0,0,2.616,1.922,7.893,7.893,0,0,0,3.353.708,8.249,8.249,0,0,0,3.093-.578A13.98,13.98,0,0,0,111.657-78.034Zm59.484-22.545a2.4,2.4,0,0,1-.217-2.023q.361-.838,1.72-.838h7.4a2.2,2.2,0,0,1,1.315.4,2.149,2.149,0,0,1,.795,1.156q.491,1.532,1.084,3.44t1.243,3.916q.65,2.009,1.286,3.989t1.171,3.642q.535,1.662.954,2.89t.621,1.749l6.128-19.626a2.66,2.66,0,0,1,.853-1.243,2.411,2.411,0,0,1,1.344-.318h7.6a3.118,3.118,0,0,1,1.272.2,1.079,1.079,0,0,1,.578.549,1.361,1.361,0,0,1,.058.795,4.953,4.953,0,0,1-.289.939L192.3-67.976a3.533,3.533,0,0,1-.752.882,2,2,0,0,1-1.3.361h-3.44a2.975,2.975,0,0,1-1.633-.332,1.972,1.972,0,0,1-.708-.91Zm38.153-.607a2.5,2.5,0,0,1,.52-1.59,1.928,1.928,0,0,1,1.619-.665h6.619a2.066,2.066,0,0,1,.751.159,2.557,2.557,0,0,1,.752.462,3.011,3.011,0,0,1,.592.708,1.747,1.747,0,0,1,.246.925v32.228a2.158,2.158,0,0,1-.607,1.662,2.456,2.456,0,0,1-1.734.564h-6.619q-2.139,0-2.139-2.226Zm0-14.625a2.338,2.338,0,0,1,.52-1.72,2.248,2.248,0,0,1,1.619-.506h6.706a2.506,2.506,0,0,1,1.633.506,2.1,2.1,0,0,1,.621,1.72v5.636a2.067,2.067,0,0,1-.159.752,3.2,3.2,0,0,1-.448.78,2.441,2.441,0,0,1-.708.621,1.823,1.823,0,0,1-.939.246h-6.706q-2.139,0-2.139-2.4Zm43.038,45.466a18.117,18.117,0,0,1-1.778,1.546,14.523,14.523,0,0,1-2.168,1.373,13.12,13.12,0,0,1-2.515.983,10.529,10.529,0,0,1-2.847.376,17.593,17.593,0,0,1-7.24-1.474,17.327,17.327,0,0,1-5.694-4.032,18.578,18.578,0,0,1-3.729-6.026,20.459,20.459,0,0,1-1.344-7.457,20.426,20.426,0,0,1,1.344-7.472,18.613,18.613,0,0,1,3.729-6.012,17.15,17.15,0,0,1,5.694-4.018,17.742,17.742,0,0,1,7.24-1.46,14.238,14.238,0,0,1,2.9.275,10.466,10.466,0,0,1,2.4.795,10.514,10.514,0,0,1,1.994,1.243,15.711,15.711,0,0,1,1.72,1.59V-112.17a2.269,2.269,0,0,1,.564-1.561,2.142,2.142,0,0,1,1.691-.636h6.5a2.243,2.243,0,0,1,.795.159,2.665,2.665,0,0,1,.766.448,2.319,2.319,0,0,1,.564.694,1.867,1.867,0,0,1,.217.9v43.211q0,2.226-2.341,2.226h-5.665a2.224,2.224,0,0,1-.9-.145,1.421,1.421,0,0,1-.535-.419,2.914,2.914,0,0,1-.39-.694q-.174-.419-.434-.968ZM235.424-85.058a10.553,10.553,0,0,0,.592,3.57,8.473,8.473,0,0,0,1.691,2.876,8.03,8.03,0,0,0,2.645,1.922,8.13,8.13,0,0,0,3.425.708,9.148,9.148,0,0,0,3.483-.665,8.877,8.877,0,0,0,2.847-1.835,9.127,9.127,0,0,0,1.951-2.76,9.053,9.053,0,0,0,.824-3.411v-.4a9.132,9.132,0,0,0-.694-3.526,9.341,9.341,0,0,0-1.922-2.948,9.11,9.11,0,0,0-2.89-2.009,8.776,8.776,0,0,0-3.6-.737,7.859,7.859,0,0,0-3.425.737,8,8,0,0,0-2.645,2.009,9.1,9.1,0,0,0-1.691,2.948A10.5,10.5,0,0,0,235.424-85.058Z" transform="translate(-5.32 118.037)" fill="#dff473"/>
            <g id="virus" transform="translate(115.057 7.948)">
              <path id="Path_6" data-name="Path 6" d="M420.361,163.705l-4.669,1.251a1.44,1.44,0,1,0,.745,2.781l4.669-1.251.033.124a1.44,1.44,0,0,0,2.781-.745l-.812-3.03a1.44,1.44,0,1,0-2.781.745Z" transform="translate(-374.834 -146.244)" fill="#dff473"/>
              <path id="Path_7" data-name="Path 7" d="M422.9,287.68a1.439,1.439,0,0,0-1.763,1.018l-.033.124-4.669-1.251a1.439,1.439,0,1,0-.745,2.781l4.669,1.251-.033.124a1.439,1.439,0,0,0,2.781.745l.812-3.03A1.439,1.439,0,0,0,422.9,287.68Z" transform="translate(-374.834 -259.93)" fill="#dff473"/>
              <path id="Path_8" data-name="Path 8" d="M1.067,167.629a1.439,1.439,0,0,0,1.763-1.018l.033-.124,4.669,1.251a1.439,1.439,0,1,0,.745-2.781l-4.669-1.251.033-.124a1.439,1.439,0,1,0-2.781-.745l-.812,3.03A1.439,1.439,0,0,0,1.067,167.629Z" transform="translate(0 -146.245)" fill="#dff473"/>
              <g id="Group_12" data-name="Group 12" transform="translate(5.386 0)">
                <path id="Path_9" data-name="Path 9" d="M292.468.861l-3.03-.812a1.44,1.44,0,1,0-.745,2.781l.124.033-1.251,4.669a1.439,1.439,0,1,0,2.781.745L291.6,3.609l.124.033a1.44,1.44,0,1,0,.745-2.781Z" transform="translate(-265.31 0)" fill="#dff473"/>
                <path id="Path_10" data-name="Path 10" d="M370.563,64.123l3.418-3.418.091.091a1.44,1.44,0,1,0,2.036-2.036l-2.218-2.218a1.44,1.44,0,0,0-2.036,2.036l.091.091-3.418,3.418a1.439,1.439,0,1,0,2.036,2.036Z" transform="translate(-338.165 -50.735)" fill="#dff473"/>
                <g id="Group_11" data-name="Group 11" transform="translate(0 0)">
                  <path id="Path_11" data-name="Path 11" d="M166.492,2.864l.124-.033a1.44,1.44,0,0,0-.745-2.781l-3.03.812a1.44,1.44,0,1,0,.745,2.781l.124-.033,1.251,4.669a1.439,1.439,0,1,0,2.781-.745Z" transform="translate(-151.635 0)" fill="#dff473"/>
                  <path id="Path_12" data-name="Path 12" d="M60.7,58.669l.091-.091a1.44,1.44,0,1,0-2.036-2.036L56.542,58.76A1.44,1.44,0,1,0,58.578,60.8l.091-.091,3.418,3.418a1.44,1.44,0,1,0,2.036-2.036Z" transform="translate(-56.12 -50.735)" fill="#dff473"/>
                </g>
              </g>
              <path id="Path_13" data-name="Path 13" d="M3.609,291.6l4.669-1.251a1.439,1.439,0,0,0-.745-2.781l-4.669,1.251L2.83,288.7a1.439,1.439,0,1,0-2.781.745l.812,3.03a1.439,1.439,0,0,0,2.781-.745Z" transform="translate(0 -259.93)" fill="#dff473"/>
              <g id="Group_14" data-name="Group 14" transform="translate(5.386 35.327)">
                <path id="Path_14" data-name="Path 14" d="M291.723,420.32l-.124.033-1.251-4.669a1.439,1.439,0,1,0-2.781.745l1.251,4.669-.124.033a1.439,1.439,0,1,0,.745,2.781l3.03-.812a1.439,1.439,0,0,0-.745-2.781Z" transform="translate(-265.31 -410.153)" fill="#dff473"/>
                <path id="Path_15" data-name="Path 15" d="M374.07,371.853l-.091.091-3.418-3.418a1.44,1.44,0,0,0-2.036,2.036l3.418,3.418-.091.091a1.439,1.439,0,0,0,2.036,2.036l2.218-2.218a1.44,1.44,0,0,0-2.036-2.036Z" transform="translate(-338.163 -368.104)" fill="#dff473"/>
                <g id="Group_13" data-name="Group 13">
                  <path id="Path_16" data-name="Path 16" d="M166.723,414.667a1.44,1.44,0,0,0-1.763,1.018l-1.251,4.669-.124-.033a1.439,1.439,0,1,0-.745,2.781l3.03.812a1.44,1.44,0,0,0,.745-2.781l-.124-.033,1.251-4.669A1.439,1.439,0,0,0,166.723,414.667Z" transform="translate(-151.633 -410.153)" fill="#dff473"/>
                  <path id="Path_17" data-name="Path 17" d="M62.086,368.526l-3.418,3.418-.091-.091a1.44,1.44,0,1,0-2.036,2.036l2.218,2.218a1.439,1.439,0,0,0,2.036-2.036l-.091-.091,3.418-3.418a1.439,1.439,0,1,0-2.036-2.036Z" transform="translate(-56.119 -368.104)" fill="#dff473"/>
                </g>
              </g>
              <ellipse id="Ellipse_1" data-name="Ellipse 1" cx="18.691" cy="18.691" rx="18.691" ry="18.691" transform="translate(5.877 5.877)" fill="#dff473"/>
              <path id="Path_18" data-name="Path 18" d="M256,98.624V61.243a18.691,18.691,0,0,1,0,37.381Z" transform="translate(-231.432 -55.366)" fill="#dff473"/>
              <g id="Group_15" data-name="Group 15" transform="translate(12.335 12.335)">
                <ellipse id="Ellipse_2" data-name="Ellipse 2" cx="1.44" cy="1.44" rx="1.44" ry="1.44" transform="translate(10.793)" fill="#dff473"/>
                <ellipse id="Ellipse_3" data-name="Ellipse 3" cx="1.44" cy="1.44" rx="1.44" ry="1.44" transform="translate(10.793 21.587)" fill="#dff473"/>
                <ellipse id="Ellipse_4" data-name="Ellipse 4" cx="1.44" cy="1.44" rx="1.44" ry="1.44" transform="translate(7.71 13.877)" fill="#dff473"/>
                <ellipse id="Ellipse_5" data-name="Ellipse 5" cx="1.44" cy="1.44" rx="1.44" ry="1.44" transform="translate(13.877 13.877)" fill="#dff473"/>
                <ellipse id="Ellipse_6" data-name="Ellipse 6" cx="1.44" cy="1.44" rx="1.44" ry="1.44" transform="translate(13.877 7.71)" fill="#dff473"/>
                <ellipse id="Ellipse_7" data-name="Ellipse 7" cx="1.44" cy="1.44" rx="1.44" ry="1.44" transform="translate(7.71 7.71)" fill="#dff473"/>
                <ellipse id="Ellipse_8" data-name="Ellipse 8" cx="1.44" cy="1.44" rx="1.44" ry="1.44" transform="translate(21.587 10.793)" fill="#dff473"/>
                <ellipse id="Ellipse_9" data-name="Ellipse 9" cx="1.44" cy="1.44" rx="1.44" ry="1.44" transform="translate(0 10.793)" fill="#dff473"/>
                <ellipse id="Ellipse_10" data-name="Ellipse 10" cx="1.44" cy="1.44" rx="1.44" ry="1.44" transform="translate(18.425 3.162)" fill="#dff473"/>
                <ellipse id="Ellipse_11" data-name="Ellipse 11" cx="1.44" cy="1.44" rx="1.44" ry="1.44" transform="translate(3.161 18.426)" fill="#dff473"/>
                <ellipse id="Ellipse_12" data-name="Ellipse 12" cx="1.44" cy="1.44" rx="1.44" ry="1.44" transform="translate(18.425 18.426)" fill="#dff473"/>
                <ellipse id="Ellipse_13" data-name="Ellipse 13" cx="1.44" cy="1.44" rx="1.44" ry="1.44" transform="translate(3.161 3.162)" fill="#dff473"/>
              </g>
              <path id="Path_19" data-name="Path 19" d="M257.439,354.907a1.44,1.44,0,0,0-1.44-1.44v2.879A1.44,1.44,0,0,0,257.439,354.907Z" transform="translate(-231.432 -319.545)" fill="#dff473"/>
              <path id="Path_20" data-name="Path 20" d="M257.439,129.973a1.44,1.44,0,0,0-1.44-1.44v2.879A1.44,1.44,0,0,0,257.439,129.973Z" transform="translate(-231.432 -116.198)" fill="#dff473"/>
            </g>
          </g>
        </g>
      </g>
    </g>
  </g>
</svg>
