<svg xmlns="http://www.w3.org/2000/svg" width="109.538" height="36.158" viewBox="0 0 109.538 36.158">
  <g id="Group_2577" data-name="Group 2577" transform="translate(-241.32 -868.963)">
    <g id="Group_190" data-name="Group 190" transform="translate(241.32 868.963)">
      <path id="Path_7859" data-name="Path 7859" d="M16.9-97.814a7.683,7.683,0,0,1-.754.656,6.159,6.159,0,0,1-.919.582,5.564,5.564,0,0,1-1.066.417A4.465,4.465,0,0,1,12.956-96a7.46,7.46,0,0,1-3.07-.625,7.348,7.348,0,0,1-2.415-1.71A7.877,7.877,0,0,1,5.89-100.89a8.676,8.676,0,0,1-.57-3.162,8.661,8.661,0,0,1,.57-3.168,7.893,7.893,0,0,1,1.581-2.549,7.272,7.272,0,0,1,2.415-1.7,7.524,7.524,0,0,1,3.07-.619,6.038,6.038,0,0,1,1.232.116,4.439,4.439,0,0,1,1.017.337,4.459,4.459,0,0,1,.846.527,6.662,6.662,0,0,1,.729.674v-5.111a.962.962,0,0,1,.239-.662.908.908,0,0,1,.717-.27h2.758a.951.951,0,0,1,.337.067,1.13,1.13,0,0,1,.325.19.983.983,0,0,1,.239.294.792.792,0,0,1,.092.38v18.324q0,.944-.993.944h-2.4a.943.943,0,0,1-.38-.061.6.6,0,0,1-.227-.178,1.237,1.237,0,0,1-.165-.294q-.074-.178-.184-.411Zm-7.17-6.239a4.475,4.475,0,0,0,.251,1.514,3.593,3.593,0,0,0,.717,1.22,3.405,3.405,0,0,0,1.121.815,3.447,3.447,0,0,0,1.452.3,3.879,3.879,0,0,0,1.477-.282,3.764,3.764,0,0,0,1.207-.778,3.87,3.87,0,0,0,.827-1.171,3.839,3.839,0,0,0,.349-1.446v-.172a3.872,3.872,0,0,0-.294-1.5,3.961,3.961,0,0,0-.815-1.25,3.863,3.863,0,0,0-1.226-.852,3.721,3.721,0,0,0-1.526-.313,3.332,3.332,0,0,0-1.452.313,3.393,3.393,0,0,0-1.121.852,3.859,3.859,0,0,0-.717,1.25A4.454,4.454,0,0,0,9.732-104.052Zm13.581-6.619a.957.957,0,0,1-.006-.84q.19-.349.84-.349h3.027a.692.692,0,0,1,.5.19,1.189,1.189,0,0,1,.294.472l3.469,9.867,3.4-9.867a.986.986,0,0,1,.343-.527,1.054,1.054,0,0,1,.576-.135H38.9a1.294,1.294,0,0,1,.539.092.566.566,0,0,1,.276.245.569.569,0,0,1,.055.343,1.531,1.531,0,0,1-.1.374l-1.017,2.519q-.552,1.367-1.146,2.844t-1.207,3q-.613,1.526-1.2,3t-1.121,2.825q-.539,1.354-.987,2.488t-.778,1.992q-.331.858-.5,1.324l.037-.061a1.066,1.066,0,0,1-.306.533.769.769,0,0,1-.539.2H28.081a1.025,1.025,0,0,1-.754-.214.888.888,0,0,1-.2-.631.561.561,0,0,1,.043-.245.486.486,0,0,1,.067-.11l1.924-5Zm27.1,9.6a.861.861,0,0,1,.325-.153,1.3,1.3,0,0,1,.239-.031.838.838,0,0,1,.38.086,1.021,1.021,0,0,1,.355.368l1.373,2.071a1.846,1.846,0,0,1,.116.221.514.514,0,0,1,.055.2.622.622,0,0,1-.178.46,2.351,2.351,0,0,1-.386.313,9.225,9.225,0,0,1-2.2,1.121A7.531,7.531,0,0,1,47.961-96a7.971,7.971,0,0,1-2.127-.282,7.811,7.811,0,0,1-1.906-.8,8.235,8.235,0,0,1-1.618-1.25,7.651,7.651,0,0,1-1.25-1.624,8.327,8.327,0,0,1-.8-1.93,8.037,8.037,0,0,1-.288-2.163,8.1,8.1,0,0,1,.288-2.169,8.181,8.181,0,0,1,.8-1.93,7.719,7.719,0,0,1,1.25-1.618,8.052,8.052,0,0,1,1.618-1.244,7.958,7.958,0,0,1,1.906-.8,7.971,7.971,0,0,1,2.127-.282,8.219,8.219,0,0,1,2.47.355,7.656,7.656,0,0,1,2.127,1.054l-.037-.037a1.431,1.431,0,0,1,.429.374.869.869,0,0,1,.159.533.849.849,0,0,1-.147.453l-1.091,1.851a.982.982,0,0,1-.833.6.852.852,0,0,1-.27-.055,1.53,1.53,0,0,1-.355-.19,5.592,5.592,0,0,0-1.158-.582,3.8,3.8,0,0,0-1.318-.227,3.236,3.236,0,0,0-1.422.313,3.346,3.346,0,0,0-1.109.852,4.014,4.014,0,0,0-.717,1.25,4.358,4.358,0,0,0-.257,1.5,4.379,4.379,0,0,0,.257,1.514,3.73,3.73,0,0,0,.717,1.22,3.356,3.356,0,0,0,1.109.815,3.347,3.347,0,0,0,1.422.3,3.5,3.5,0,0,0,1.311-.245A5.928,5.928,0,0,0,50.413-101.074Zm25.224-9.56a1.016,1.016,0,0,1-.092-.858q.153-.355.729-.355h3.138a.931.931,0,0,1,.558.172.911.911,0,0,1,.337.49q.208.65.46,1.459t.527,1.661q.276.852.545,1.691l.5,1.544q.227.7.4,1.226t.264.742l2.6-8.322a1.128,1.128,0,0,1,.362-.527,1.022,1.022,0,0,1,.57-.135h3.224a1.322,1.322,0,0,1,.539.086.458.458,0,0,1,.245.233.577.577,0,0,1,.025.337,2.1,2.1,0,0,1-.123.4L84.609-96.809a1.5,1.5,0,0,1-.319.374.846.846,0,0,1-.552.153H82.28a1.262,1.262,0,0,1-.693-.141.836.836,0,0,1-.3-.386Zm16.179-.257a1.061,1.061,0,0,1,.221-.674.818.818,0,0,1,.686-.282H95.53a.876.876,0,0,1,.319.067,1.084,1.084,0,0,1,.319.2,1.276,1.276,0,0,1,.251.3.741.741,0,0,1,.1.392v13.666a.915.915,0,0,1-.257.7,1.041,1.041,0,0,1-.735.239H92.723q-.907,0-.907-.944Zm0-6.2a.992.992,0,0,1,.221-.729.953.953,0,0,1,.686-.214h2.844a1.063,1.063,0,0,1,.693.214.891.891,0,0,1,.264.729v2.39a.876.876,0,0,1-.067.319,1.356,1.356,0,0,1-.19.331,1.035,1.035,0,0,1-.3.264.773.773,0,0,1-.4.1H92.723q-.907,0-.907-1.017Zm18.25,19.28a7.682,7.682,0,0,1-.754.656,6.159,6.159,0,0,1-.919.582,5.564,5.564,0,0,1-1.066.417A4.465,4.465,0,0,1,106.12-96a7.461,7.461,0,0,1-3.07-.625,7.348,7.348,0,0,1-2.415-1.71,7.877,7.877,0,0,1-1.581-2.556,8.676,8.676,0,0,1-.57-3.162,8.662,8.662,0,0,1,.57-3.168,7.893,7.893,0,0,1,1.581-2.549,7.273,7.273,0,0,1,2.415-1.7,7.524,7.524,0,0,1,3.07-.619,6.038,6.038,0,0,1,1.232.116,4.439,4.439,0,0,1,1.017.337,4.459,4.459,0,0,1,.846.527,6.661,6.661,0,0,1,.729.674v-5.111a.962.962,0,0,1,.239-.662.908.908,0,0,1,.717-.27h2.758a.951.951,0,0,1,.337.067,1.13,1.13,0,0,1,.325.19.983.983,0,0,1,.239.294.792.792,0,0,1,.092.38v18.324q0,.944-.993.944h-2.4a.943.943,0,0,1-.38-.061.6.6,0,0,1-.227-.178,1.237,1.237,0,0,1-.165-.294q-.074-.178-.184-.411Zm-7.17-6.239a4.475,4.475,0,0,0,.251,1.514,3.593,3.593,0,0,0,.717,1.22,3.405,3.405,0,0,0,1.121.815,3.447,3.447,0,0,0,1.452.3,3.88,3.88,0,0,0,1.477-.282,3.764,3.764,0,0,0,1.207-.778,3.87,3.87,0,0,0,.827-1.171,3.838,3.838,0,0,0,.349-1.446v-.172a3.872,3.872,0,0,0-.294-1.5,3.961,3.961,0,0,0-.815-1.25,3.863,3.863,0,0,0-1.226-.852,3.721,3.721,0,0,0-1.526-.313,3.332,3.332,0,0,0-1.452.313,3.393,3.393,0,0,0-1.121.852,3.859,3.859,0,0,0-.717,1.25A4.454,4.454,0,0,0,102.9-104.052Z" transform="translate(-5.32 118.037)" fill="#dff473"/>
      <g id="virus" transform="translate(49.131 3.37)">
        <path id="Path_6" data-name="Path 6" d="M417.058,162.59l-1.98.531a.61.61,0,1,0,.316,1.179l1.98-.531.014.053a.61.61,0,1,0,1.179-.316l-.344-1.285a.61.61,0,0,0-1.179.316Z" transform="translate(-397.752 -155.185)" fill="#dff473"/>
        <path id="Path_7" data-name="Path 7" d="M418.135,287.59a.61.61,0,0,0-.748.432l-.014.053-1.98-.531a.61.61,0,0,0-.316,1.179l1.98.531-.014.053a.61.61,0,0,0,1.179.316l.344-1.285A.61.61,0,0,0,418.135,287.59Z" transform="translate(-397.752 -275.822)" fill="#dff473"/>
        <path id="Path_8" data-name="Path 8" d="M.453,164.254a.61.61,0,0,0,.748-.432l.014-.053,1.98.531a.61.61,0,0,0,.316-1.179l-1.98-.531.014-.053a.61.61,0,0,0-1.179-.316l-.344,1.285a.61.61,0,0,0,.432.748Z" transform="translate(0 -155.186)" fill="#dff473"/>
        <g id="Group_12" data-name="Group 12" transform="translate(2.284 0)">
          <path id="Path_9" data-name="Path 9" d="M289.617.365,288.332.021a.61.61,0,0,0-.316,1.179l.053.014-.531,1.98a.61.61,0,1,0,1.179.316l.531-1.98.053.014a.61.61,0,1,0,.316-1.179Z" transform="translate(-278.1 0)" fill="#dff473"/>
          <path id="Path_10" data-name="Path 10" d="M369.148,59.514l1.449-1.449.039.039a.61.61,0,0,0,.863-.863l-.94-.94a.61.61,0,1,0-.863.863l.039.039-1.449,1.449a.61.61,0,1,0,.863.863Z" transform="translate(-355.409 -53.837)" fill="#dff473"/>
          <g id="Group_11" data-name="Group 11" transform="translate(0 0)">
            <path id="Path_11" data-name="Path 11" d="M163.775,1.214l.053-.014a.61.61,0,0,0-.316-1.179l-1.285.344a.61.61,0,1,0,.316,1.179l.053-.014.531,1.98a.61.61,0,1,0,1.179-.316Z" transform="translate(-157.475 0)" fill="#dff473"/>
            <path id="Path_12" data-name="Path 12" d="M58.064,57.2l.039-.039a.61.61,0,0,0-.863-.863l-.94.94a.61.61,0,0,0,.863.863l.039-.039,1.449,1.449a.61.61,0,0,0,.863-.863Z" transform="translate(-56.12 -53.837)" fill="#dff473"/>
          </g>
        </g>
        <path id="Path_13" data-name="Path 13" d="M1.53,289.254l1.98-.531a.61.61,0,1,0-.316-1.179l-1.98.531-.014-.053a.61.61,0,1,0-1.179.316l.344,1.285a.61.61,0,0,0,1.179-.316Z" transform="translate(0 -275.823)" fill="#dff473"/>
        <g id="Group_14" data-name="Group 14" transform="translate(2.284 14.98)">
          <path id="Path_14" data-name="Path 14" d="M289.3,417.035l-.053.014-.531-1.98a.61.61,0,0,0-1.179.316l.531,1.98-.053.014a.61.61,0,1,0,.316,1.179l1.285-.344a.61.61,0,0,0-.316-1.179Z" transform="translate(-278.1 -412.723)" fill="#dff473"/>
          <path id="Path_15" data-name="Path 15" d="M370.634,369.694l-.039.039-1.449-1.449a.61.61,0,0,0-.863.863l1.449,1.449-.039.039a.61.61,0,0,0,.863.863l.941-.94a.61.61,0,1,0-.863-.863Z" transform="translate(-355.407 -368.104)" fill="#dff473"/>
          <g id="Group_13" data-name="Group 13">
            <path id="Path_16" data-name="Path 16" d="M163.872,414.638a.611.611,0,0,0-.748.432l-.531,1.98-.053-.014a.61.61,0,1,0-.316,1.179l1.285.344a.61.61,0,1,0,.316-1.179l-.053-.014.53-1.98A.61.61,0,0,0,163.872,414.638Z" transform="translate(-157.473 -412.724)" fill="#dff473"/>
            <path id="Path_17" data-name="Path 17" d="M58.65,368.283,57.2,369.732l-.039-.039a.61.61,0,1,0-.863.863l.94.94a.61.61,0,0,0,.863-.863l-.039-.039,1.449-1.449a.61.61,0,1,0-.863-.863Z" transform="translate(-56.119 -368.104)" fill="#dff473"/>
          </g>
        </g>
        <circle id="Ellipse_1" data-name="Ellipse 1" cx="7.926" cy="7.926" r="7.926" transform="translate(2.492 2.492)" fill="#dff473"/>
        <path id="Path_18" data-name="Path 18" d="M256,77.095V61.243a7.926,7.926,0,1,1,0,15.852Z" transform="translate(-245.582 -58.751)" fill="#dff473"/>
        <g id="Group_15" data-name="Group 15" transform="translate(5.231 5.231)">
          <circle id="Ellipse_2" data-name="Ellipse 2" cx="0.61" cy="0.61" r="0.61" transform="translate(4.577)" fill="#dff473"/>
          <circle id="Ellipse_3" data-name="Ellipse 3" cx="0.61" cy="0.61" r="0.61" transform="translate(4.577 9.154)" fill="#dff473"/>
          <circle id="Ellipse_4" data-name="Ellipse 4" cx="0.61" cy="0.61" r="0.61" transform="translate(3.269 5.885)" fill="#dff473"/>
          <circle id="Ellipse_5" data-name="Ellipse 5" cx="0.61" cy="0.61" r="0.61" transform="translate(5.885 5.885)" fill="#dff473"/>
          <circle id="Ellipse_6" data-name="Ellipse 6" cx="0.61" cy="0.61" r="0.61" transform="translate(5.885 3.269)" fill="#dff473"/>
          <circle id="Ellipse_7" data-name="Ellipse 7" cx="0.61" cy="0.61" r="0.61" transform="translate(3.269 3.269)" fill="#dff473"/>
          <circle id="Ellipse_8" data-name="Ellipse 8" cx="0.61" cy="0.61" r="0.61" transform="translate(9.154 4.577)" fill="#dff473"/>
          <circle id="Ellipse_9" data-name="Ellipse 9" cx="0.61" cy="0.61" r="0.61" transform="translate(0 4.577)" fill="#dff473"/>
          <circle id="Ellipse_10" data-name="Ellipse 10" cx="0.61" cy="0.61" r="0.61" transform="translate(7.813 1.341)" fill="#dff473"/>
          <circle id="Ellipse_11" data-name="Ellipse 11" cx="0.61" cy="0.61" r="0.61" transform="translate(1.341 7.813)" fill="#dff473"/>
          <circle id="Ellipse_12" data-name="Ellipse 12" cx="0.61" cy="0.61" r="0.61" transform="translate(7.813 7.813)" fill="#dff473"/>
          <circle id="Ellipse_13" data-name="Ellipse 13" cx="0.61" cy="0.61" r="0.61" transform="translate(1.341 1.341)" fill="#dff473"/>
        </g>
        <path id="Path_19" data-name="Path 19" d="M256.61,354.077a.611.611,0,0,0-.61-.61v1.221A.611.611,0,0,0,256.61,354.077Z" transform="translate(-245.582 -339.082)" fill="#dff473"/>
        <path id="Path_20" data-name="Path 20" d="M256.61,129.143a.611.611,0,0,0-.61-.61v1.221A.611.611,0,0,0,256.61,129.143Z" transform="translate(-245.582 -123.302)" fill="#dff473"/>
      </g>
    </g>
    <path id="Path_7860" data-name="Path 7860" d="M3.376-21.67a.152.152,0,0,1-.113-.044.152.152,0,0,1-.044-.113V-26.28a.161.161,0,0,1,.044-.119.152.152,0,0,1,.113-.044H4.924a2.032,2.032,0,0,1,1.487.46A1.959,1.959,0,0,1,6.888-24.6q.007.2.007.532t-.007.539a2.647,2.647,0,0,1-.215,1.054,1.251,1.251,0,0,1-.61.6,2.6,2.6,0,0,1-1.1.2Zm1.548-.58a1.783,1.783,0,0,0,.747-.13.8.8,0,0,0,.4-.413,2.043,2.043,0,0,0,.14-.76q.014-.409.014-.511t-.014-.5a1.4,1.4,0,0,0-.321-.985,1.368,1.368,0,0,0-1-.31h-1v3.614Zm3.253,1.875a.131.131,0,0,1-.1-.041.131.131,0,0,1-.041-.1.315.315,0,0,1,.034-.123L8.6-21.881,7.3-24.957a.438.438,0,0,1-.034-.116.139.139,0,0,1,.041-.1.139.139,0,0,1,.1-.041H7.74A.175.175,0,0,1,7.9-25.1l1.037,2.482L10-25.1a.179.179,0,0,1,.17-.116H10.5a.139.139,0,0,1,.1.041.131.131,0,0,1,.041.1.654.654,0,0,1-.034.123L8.668-20.49a.179.179,0,0,1-.17.116Zm3.028-1.3a.152.152,0,0,1-.113-.044.152.152,0,0,1-.044-.113v-3.232a.152.152,0,0,1,.044-.113.152.152,0,0,1,.113-.044h.321a.152.152,0,0,1,.113.044.152.152,0,0,1,.044.113v.3a1.385,1.385,0,0,1,.467-.389,1.479,1.479,0,0,1,.672-.136,1.279,1.279,0,0,1,1.02.419,1.639,1.639,0,0,1,.365,1.115v1.923a.152.152,0,0,1-.044.113.152.152,0,0,1-.113.044h-.341a.152.152,0,0,1-.113-.044.152.152,0,0,1-.044-.113v-1.889a1.1,1.1,0,0,0-.235-.75.858.858,0,0,0-.679-.266.889.889,0,0,0-.682.269,1.049,1.049,0,0,0-.252.747v1.889a.152.152,0,0,1-.044.113.152.152,0,0,1-.113.044ZM15.9-21.6a1.425,1.425,0,0,1-.621-.136,1.148,1.148,0,0,1-.453-.372.881.881,0,0,1-.167-.522.9.9,0,0,1,.372-.74,2.079,2.079,0,0,1,1.006-.378l1.016-.143v-.2q0-.7-.8-.7a.875.875,0,0,0-.491.126.866.866,0,0,0-.286.3.2.2,0,0,1-.051.089.124.124,0,0,1-.085.027h-.293a.144.144,0,0,1-.106-.044.144.144,0,0,1-.044-.106.724.724,0,0,1,.153-.372,1.19,1.19,0,0,1,.454-.361,1.682,1.682,0,0,1,.757-.153,1.446,1.446,0,0,1,1.1.358,1.254,1.254,0,0,1,.334.89v2.21a.152.152,0,0,1-.044.113.152.152,0,0,1-.113.044H17.22a.152.152,0,0,1-.113-.044.152.152,0,0,1-.044-.113v-.293a1.178,1.178,0,0,1-.436.368A1.566,1.566,0,0,1,15.9-21.6Zm.143-.511a.971.971,0,0,0,.726-.29,1.147,1.147,0,0,0,.283-.835v-.191l-.791.116a1.826,1.826,0,0,0-.73.228.473.473,0,0,0-.246.406.471.471,0,0,0,.225.419A.953.953,0,0,0,16.04-22.113Zm2.516.443a.152.152,0,0,1-.113-.044.152.152,0,0,1-.044-.113v-3.232a.152.152,0,0,1,.044-.113.152.152,0,0,1,.113-.044h.307a.152.152,0,0,1,.113.044.152.152,0,0,1,.044.113v.239a1.174,1.174,0,0,1,.989-.464,1.1,1.1,0,0,1,1.071.627,1.211,1.211,0,0,1,.464-.457,1.342,1.342,0,0,1,.675-.17,1.191,1.191,0,0,1,.914.382,1.566,1.566,0,0,1,.355,1.1v1.971a.152.152,0,0,1-.044.113.152.152,0,0,1-.113.044h-.321a.152.152,0,0,1-.113-.044.152.152,0,0,1-.044-.113v-1.909a1.084,1.084,0,0,0-.222-.764.77.77,0,0,0-.583-.232.749.749,0,0,0-.552.235,1.053,1.053,0,0,0-.232.76v1.909a.152.152,0,0,1-.044.113.152.152,0,0,1-.113.044h-.321a.152.152,0,0,1-.113-.044.152.152,0,0,1-.044-.113v-1.909A1.062,1.062,0,0,0,20.4-24.5a.775.775,0,0,0-.576-.232.749.749,0,0,0-.552.235,1.042,1.042,0,0,0-.232.754v1.916a.152.152,0,0,1-.044.113.152.152,0,0,1-.113.044Zm5.735-4.208a.152.152,0,0,1-.113-.044.152.152,0,0,1-.044-.113V-26.4a.164.164,0,0,1,.044-.116.147.147,0,0,1,.113-.048h.43a.158.158,0,0,1,.116.048.158.158,0,0,1,.048.116v.368a.147.147,0,0,1-.048.113.164.164,0,0,1-.116.044Zm.055,4.208a.152.152,0,0,1-.113-.044.152.152,0,0,1-.044-.113v-3.232a.152.152,0,0,1,.044-.113.152.152,0,0,1,.113-.044h.327a.152.152,0,0,1,.113.044.152.152,0,0,1,.044.113v3.232a.152.152,0,0,1-.044.113.152.152,0,0,1-.113.044ZM27-21.6a1.544,1.544,0,0,1-1.142-.413,1.653,1.653,0,0,1-.44-1.156l-.007-.273.007-.273a1.653,1.653,0,0,1,.44-1.156A1.544,1.544,0,0,1,27-25.284a1.786,1.786,0,0,1,.832.177,1.3,1.3,0,0,1,.508.436,1.056,1.056,0,0,1,.181.518.119.119,0,0,1-.041.109.172.172,0,0,1-.116.041h-.327a.162.162,0,0,1-.1-.027.281.281,0,0,1-.068-.109.893.893,0,0,0-.327-.467.945.945,0,0,0-.532-.14.882.882,0,0,0-.672.263,1.2,1.2,0,0,0-.269.8l-.007.246.007.232a1.205,1.205,0,0,0,.266.8.885.885,0,0,0,.675.259.945.945,0,0,0,.532-.14.893.893,0,0,0,.327-.467.321.321,0,0,1,.068-.113.149.149,0,0,1,.1-.031h.327a.164.164,0,0,1,.116.044.128.128,0,0,1,.041.113,1.067,1.067,0,0,1-.181.515,1.29,1.29,0,0,1-.5.44A1.781,1.781,0,0,1,27-21.6Zm5.265,0a1.842,1.842,0,0,1-1.388-.491,1.992,1.992,0,0,1-.508-1.357q-.007-.184-.007-.6t.007-.614a1.987,1.987,0,0,1,.511-1.354,1.837,1.837,0,0,1,1.384-.494,2.254,2.254,0,0,1,1.03.215,1.576,1.576,0,0,1,.641.563,1.527,1.527,0,0,1,.239.743v.014a.116.116,0,0,1-.044.092.149.149,0,0,1-.1.038h-.375q-.136,0-.17-.157a1.137,1.137,0,0,0-.416-.719,1.389,1.389,0,0,0-.8-.208q-1.173,0-1.214,1.3-.007.184-.007.566t.007.58q.041,1.3,1.214,1.3a1.406,1.406,0,0,0,.808-.208,1.106,1.106,0,0,0,.413-.719.222.222,0,0,1,.061-.123.165.165,0,0,1,.109-.034h.375a.158.158,0,0,1,.106.038.106.106,0,0,1,.038.1,1.537,1.537,0,0,1-.239.75,1.576,1.576,0,0,1-.641.563A2.254,2.254,0,0,1,32.264-21.6Zm3.914,0a1.55,1.55,0,0,1-1.163-.423,1.638,1.638,0,0,1-.44-1.125l-.007-.293.007-.293a1.634,1.634,0,0,1,.443-1.122,1.545,1.545,0,0,1,1.159-.426,1.545,1.545,0,0,1,1.159.426,1.634,1.634,0,0,1,.443,1.122q.007.075.007.293t-.007.293a1.638,1.638,0,0,1-.44,1.125A1.55,1.55,0,0,1,36.178-21.6Zm0-.525a.873.873,0,0,0,.679-.273,1.2,1.2,0,0,0,.269-.784q.007-.068.007-.259t-.007-.259a1.2,1.2,0,0,0-.269-.784.873.873,0,0,0-.679-.273.884.884,0,0,0-.682.273,1.162,1.162,0,0,0-.266.784l-.007.259.007.259a1.162,1.162,0,0,0,.266.784A.884.884,0,0,0,36.178-22.126Zm3.294.457a.258.258,0,0,1-.252-.17L37.958-25l-.014-.068a.139.139,0,0,1,.041-.1.139.139,0,0,1,.1-.041h.327a.179.179,0,0,1,.17.116l1.037,2.687L40.658-25.1a.184.184,0,0,1,.164-.116h.334a.142.142,0,0,1,.1.041.133.133,0,0,1,.044.1L41.286-25,40.017-21.84a.258.258,0,0,1-.252.17Zm2.373-4.208a.152.152,0,0,1-.113-.044.152.152,0,0,1-.044-.113V-26.4a.164.164,0,0,1,.044-.116.147.147,0,0,1,.113-.048h.43a.158.158,0,0,1,.116.048.158.158,0,0,1,.048.116v.368a.147.147,0,0,1-.048.113.164.164,0,0,1-.116.044ZM41.9-21.67a.152.152,0,0,1-.113-.044.152.152,0,0,1-.044-.113v-3.232a.152.152,0,0,1,.044-.113.152.152,0,0,1,.113-.044h.327a.152.152,0,0,1,.113.044.152.152,0,0,1,.044.113v3.232a.152.152,0,0,1-.044.113.152.152,0,0,1-.113.044Zm2.516.068a1.274,1.274,0,0,1-1.071-.464,1.946,1.946,0,0,1-.382-1.173l-.007-.2.007-.2a1.951,1.951,0,0,1,.382-1.17,1.27,1.27,0,0,1,1.071-.467,1.343,1.343,0,0,1,1.1.5v-1.569a.152.152,0,0,1,.044-.113.152.152,0,0,1,.113-.044H46a.152.152,0,0,1,.113.044.152.152,0,0,1,.044.113v4.528a.152.152,0,0,1-.044.113A.152.152,0,0,1,46-21.67H45.7a.152.152,0,0,1-.113-.044.152.152,0,0,1-.044-.113v-.286A1.339,1.339,0,0,1,44.416-21.6Zm.143-.552a.83.83,0,0,0,.706-.31,1.3,1.3,0,0,0,.256-.74q.007-.075.007-.259t-.007-.266a1.14,1.14,0,0,0-.259-.7.856.856,0,0,0-.7-.3.819.819,0,0,0-.706.3,1.4,1.4,0,0,0-.242.791l-.007.2Q43.6-22.154,44.559-22.154Zm4.862.484a.152.152,0,0,1-.113-.044.152.152,0,0,1-.044-.113v-4.01H47.955a.152.152,0,0,1-.113-.044.152.152,0,0,1-.044-.113v-.286a.164.164,0,0,1,.044-.116.147.147,0,0,1,.113-.048h3.287a.161.161,0,0,1,.119.044.161.161,0,0,1,.044.119v.286a.147.147,0,0,1-.048.113.164.164,0,0,1-.116.044h-1.3v4.01a.147.147,0,0,1-.048.113.164.164,0,0,1-.116.044Zm1.991,0a.152.152,0,0,1-.113-.044.152.152,0,0,1-.044-.113v-3.226a.164.164,0,0,1,.044-.116.147.147,0,0,1,.113-.048h.314a.158.158,0,0,1,.116.048.158.158,0,0,1,.048.116v.3a1.024,1.024,0,0,1,.955-.464h.266a.152.152,0,0,1,.113.044.152.152,0,0,1,.044.113v.28a.141.141,0,0,1-.044.109.159.159,0,0,1-.113.041H52.7a.776.776,0,0,0-.58.215.8.8,0,0,0-.211.583v2a.147.147,0,0,1-.048.113.164.164,0,0,1-.116.044Zm3.1.068a1.425,1.425,0,0,1-.621-.136,1.148,1.148,0,0,1-.453-.372.881.881,0,0,1-.167-.522.9.9,0,0,1,.372-.74,2.079,2.079,0,0,1,1.006-.378l1.016-.143v-.2q0-.7-.8-.7a.875.875,0,0,0-.491.126.866.866,0,0,0-.286.3.2.2,0,0,1-.051.089.124.124,0,0,1-.085.027h-.293a.144.144,0,0,1-.106-.044.144.144,0,0,1-.044-.106.724.724,0,0,1,.153-.372,1.19,1.19,0,0,1,.454-.361,1.682,1.682,0,0,1,.757-.153,1.446,1.446,0,0,1,1.1.358,1.254,1.254,0,0,1,.334.89v2.21a.152.152,0,0,1-.044.113.152.152,0,0,1-.113.044h-.314a.152.152,0,0,1-.113-.044.152.152,0,0,1-.044-.113v-.293a1.178,1.178,0,0,1-.436.368A1.566,1.566,0,0,1,54.509-21.6Zm.143-.511a.971.971,0,0,0,.726-.29,1.147,1.147,0,0,0,.283-.835v-.191l-.791.116a1.826,1.826,0,0,0-.73.228.473.473,0,0,0-.246.406.471.471,0,0,0,.225.419A.953.953,0,0,0,54.652-22.113Zm3.792.511a1.544,1.544,0,0,1-1.142-.413,1.653,1.653,0,0,1-.44-1.156l-.007-.273.007-.273a1.653,1.653,0,0,1,.44-1.156,1.544,1.544,0,0,1,1.142-.413,1.786,1.786,0,0,1,.832.177,1.3,1.3,0,0,1,.508.436,1.056,1.056,0,0,1,.181.518.119.119,0,0,1-.041.109.172.172,0,0,1-.116.041H59.48a.162.162,0,0,1-.1-.027.281.281,0,0,1-.068-.109.893.893,0,0,0-.327-.467.945.945,0,0,0-.532-.14.882.882,0,0,0-.672.263,1.2,1.2,0,0,0-.269.8l-.007.246.007.232a1.205,1.205,0,0,0,.266.8.885.885,0,0,0,.675.259.945.945,0,0,0,.532-.14.893.893,0,0,0,.327-.467.321.321,0,0,1,.068-.113.149.149,0,0,1,.1-.031h.327a.164.164,0,0,1,.116.044.128.128,0,0,1,.041.113,1.068,1.068,0,0,1-.181.515,1.29,1.29,0,0,1-.5.44A1.781,1.781,0,0,1,58.444-21.6Zm2.223-.068a.152.152,0,0,1-.113-.044.152.152,0,0,1-.044-.113v-4.528a.152.152,0,0,1,.044-.113.152.152,0,0,1,.113-.044h.321a.152.152,0,0,1,.113.044.152.152,0,0,1,.044.113v2.373L62.488-25.1a.851.851,0,0,0,.068-.055.325.325,0,0,1,.092-.048.39.39,0,0,1,.113-.014h.361a.139.139,0,0,1,.1.041.139.139,0,0,1,.041.1.156.156,0,0,1-.082.13l-1.575,1.309,1.746,1.7q.082.068.082.123a.139.139,0,0,1-.041.1.139.139,0,0,1-.1.041h-.355a.378.378,0,0,1-.147-.02.579.579,0,0,1-.126-.1l-1.521-1.453v1.412a.152.152,0,0,1-.044.113.152.152,0,0,1-.113.044Zm3.185-4.208a.152.152,0,0,1-.113-.044.152.152,0,0,1-.044-.113V-26.4a.164.164,0,0,1,.044-.116.147.147,0,0,1,.113-.048h.43a.158.158,0,0,1,.116.048.158.158,0,0,1,.048.116v.368a.147.147,0,0,1-.048.113.164.164,0,0,1-.116.044Zm.055,4.208a.152.152,0,0,1-.113-.044.152.152,0,0,1-.044-.113v-3.232a.152.152,0,0,1,.044-.113.152.152,0,0,1,.113-.044h.327a.152.152,0,0,1,.113.044.152.152,0,0,1,.044.113v3.232a.152.152,0,0,1-.044.113.152.152,0,0,1-.113.044Zm1.378,0a.152.152,0,0,1-.113-.044.152.152,0,0,1-.044-.113v-3.232a.152.152,0,0,1,.044-.113.152.152,0,0,1,.113-.044H65.6a.152.152,0,0,1,.113.044.152.152,0,0,1,.044.113v.3a1.385,1.385,0,0,1,.467-.389,1.479,1.479,0,0,1,.672-.136,1.28,1.28,0,0,1,1.02.419,1.639,1.639,0,0,1,.365,1.115v1.923a.152.152,0,0,1-.044.113.152.152,0,0,1-.113.044h-.341a.152.152,0,0,1-.113-.044.152.152,0,0,1-.044-.113v-1.889a1.1,1.1,0,0,0-.235-.75.858.858,0,0,0-.679-.266.889.889,0,0,0-.682.269,1.05,1.05,0,0,0-.252.747v1.889a.152.152,0,0,1-.044.113.152.152,0,0,1-.113.044Zm5.156,1.5a1.865,1.865,0,0,1-.9-.188,1.242,1.242,0,0,1-.484-.426,1,1,0,0,1-.157-.43.133.133,0,0,1,.044-.116.162.162,0,0,1,.113-.048h.327a.166.166,0,0,1,.1.031.227.227,0,0,1,.068.113.916.916,0,0,0,.269.378.884.884,0,0,0,.583.16,1.087,1.087,0,0,0,.743-.215.992.992,0,0,0,.239-.76v-.464a1.274,1.274,0,0,1-.45.358,1.464,1.464,0,0,1-.648.133,1.284,1.284,0,0,1-1.081-.46,1.944,1.944,0,0,1-.378-1.17l-.007-.191.007-.184a1.951,1.951,0,0,1,.382-1.17,1.278,1.278,0,0,1,1.077-.467,1.329,1.329,0,0,1,1.118.525v-.293a.164.164,0,0,1,.044-.116.147.147,0,0,1,.113-.048h.314a.158.158,0,0,1,.116.048.158.158,0,0,1,.048.116v3.307A1.4,1.4,0,0,1,70.439-20.169Zm-.014-2.019a.836.836,0,0,0,.7-.307,1.256,1.256,0,0,0,.259-.73q.007-.061.007-.239t-.007-.232a1.269,1.269,0,0,0-.256-.73.834.834,0,0,0-.706-.307.81.81,0,0,0-.7.3,1.419,1.419,0,0,0-.239.791l-.007.177.007.184a1.425,1.425,0,0,0,.239.788A.806.806,0,0,0,70.426-22.188Z" transform="translate(278.815 925.29)" fill="#fff"/>
  </g>
</svg>
