<svg xmlns="http://www.w3.org/2000/svg" width="151.6" height="38.28" viewBox="0 0 151.6 38.28">
  <path id="Union_5" data-name="Union 5" d="M31.56,38.28a1.432,1.432,0,0,1-1.045-.294,1.211,1.211,0,0,1-.28-.866.767.767,0,0,1,.059-.337.667.667,0,0,1,.094-.151l2.668-6.862L24.949,10.108a1.3,1.3,0,0,1-.009-1.152q.263-.48,1.164-.48h4.2a.965.965,0,0,1,.7.261,1.633,1.633,0,0,1,.408.648l4.81,13.539L40.925,9.385a1.347,1.347,0,0,1,.476-.724,1.472,1.472,0,0,1,.8-.185h4.368a1.808,1.808,0,0,1,.747.127.782.782,0,0,1,.382.337.77.77,0,0,1,.076.471,2.063,2.063,0,0,1-.136.513l-1.41,3.456q-.766,1.875-1.59,3.9L42.964,21.4q-.849,2.094-1.657,4.112t-1.556,3.877Q39,31.25,38.384,32.805T37.3,35.538q-.459,1.178-.7,1.817l.051-.084a1.458,1.458,0,0,1-.424.732,1.073,1.073,0,0,1-.748.277Zm52.889-4.1a.865.865,0,0,1,.619-1.061l.076-.02-.542-2a11.585,11.585,0,0,1-4.177,0l-.542,2,.076.02a.865.865,0,0,1-.226,1.7.9.9,0,0,1-.228-.029L77.663,34.3a.864.864,0,0,1-.619-1.061.877.877,0,0,1,1.072-.613l.075.02.542-2a11.37,11.37,0,0,1-3.614-2.068l-1.483,1.467.056.055a.86.86,0,0,1,0,1.225.883.883,0,0,1-1.238,0l-1.349-1.335a.86.86,0,0,1,0-1.225.881.881,0,0,1,1.238,0l.055.055,1.483-1.467a11.213,11.213,0,0,1-2.091-3.578l-2.022.537.02.075a.864.864,0,0,1-.619,1.061.876.876,0,0,1-1.072-.612L67.6,23.011a.865.865,0,0,1,.619-1.061.877.877,0,0,1,1.072.613l.02.075,2.023-.537a11.255,11.255,0,0,1,0-4.132l-2.023-.537-.02.075a.876.876,0,0,1-1.072.612.865.865,0,0,1-.619-1.061l.493-1.823a.877.877,0,0,1,1.072-.613.865.865,0,0,1,.619,1.061l-.02.075,2.022.536a11.207,11.207,0,0,1,2.091-3.578L72.4,11.25l-.055.055a.881.881,0,0,1-1.238,0,.86.86,0,0,1,0-1.225l1.349-1.335a.881.881,0,0,1,1.238,0,.86.86,0,0,1,0,1.225l-.056.055,1.482,1.466a11.385,11.385,0,0,1,3.615-2.068l-.542-2-.075.02a.876.876,0,0,1-1.072-.612.866.866,0,0,1,.619-1.061l1.842-.488a.876.876,0,0,1,1.072.612.866.866,0,0,1-.619,1.061l-.076.02.542,2a11.612,11.612,0,0,1,4.175,0l.542-2-.075-.02a.865.865,0,0,1-.619-1.061.876.876,0,0,1,1.072-.612l1.842.488a.866.866,0,0,1,.619,1.061.876.876,0,0,1-1.072.612l-.076-.02-.542,2a11.376,11.376,0,0,1,3.614,2.068l1.483-1.468-.055-.055a.86.86,0,0,1,0-1.225.881.881,0,0,1,1.238,0l1.349,1.335a.86.86,0,0,1,0,1.225.881.881,0,0,1-1.238,0l-.056-.055-1.483,1.468a11.2,11.2,0,0,1,2.09,3.577l2.025-.537-.02-.075a.865.865,0,0,1,.619-1.061.875.875,0,0,1,1.072.613l.494,1.823a.866.866,0,0,1-.619,1.061.877.877,0,0,1-1.072-.613l-.02-.075-2.026.537a11.252,11.252,0,0,1,0,4.131l2.026.537.02-.075A.877.877,0,0,1,96.8,21.95a.866.866,0,0,1,.619,1.061l-.494,1.824a.875.875,0,0,1-1.072.612.864.864,0,0,1-.619-1.061l.02-.075-2.025-.537a11.2,11.2,0,0,1-2.089,3.577l1.484,1.468.056-.055a.882.882,0,0,1,1.238,0,.86.86,0,0,1,0,1.225l-1.349,1.334a.881.881,0,0,1-1.238,0,.86.86,0,0,1,0-1.225l.055-.055-1.484-1.469a11.374,11.374,0,0,1-3.614,2.069l.542,2,.076-.02a.877.877,0,0,1,1.072.613.866.866,0,0,1-.619,1.061l-1.842.489a.887.887,0,0,1-.227.03A.875.875,0,0,1,84.45,34.176Zm51.063-4.793a10.177,10.177,0,0,1-3.348-2.346,10.793,10.793,0,0,1-2.193-3.507,11.8,11.8,0,0,1-.79-4.34,11.778,11.778,0,0,1,.79-4.348,10.806,10.806,0,0,1,2.193-3.5,10.065,10.065,0,0,1,3.348-2.338,10.524,10.524,0,0,1,4.257-.849,8.452,8.452,0,0,1,1.708.16A6.075,6.075,0,0,1,144.062,9.5a9.151,9.151,0,0,1,1.011.925V3.414a1.313,1.313,0,0,1,.331-.908,1.267,1.267,0,0,1,.994-.37h3.824a1.33,1.33,0,0,1,.467.093,1.562,1.562,0,0,1,.45.261,1.357,1.357,0,0,1,.332.4,1.079,1.079,0,0,1,.127.521V28.559q0,1.295-1.376,1.3h-3.331a1.32,1.32,0,0,1-.527-.084.842.842,0,0,1-.315-.244,1.7,1.7,0,0,1-.229-.4q-.1-.244-.255-.563l-.323-.808a10.66,10.66,0,0,1-1.045.9,8.534,8.534,0,0,1-1.275.8,7.767,7.767,0,0,1-1.479.572,6.248,6.248,0,0,1-1.674.219A10.435,10.435,0,0,1,135.513,29.383ZM138.2,14.254a4.693,4.693,0,0,0-1.555,1.169,5.286,5.286,0,0,0-.994,1.716,6.287,6.287,0,0,0,0,4.129,4.92,4.92,0,0,0,.994,1.673A4.712,4.712,0,0,0,138.2,24.06a4.821,4.821,0,0,0,2.014.412,5.427,5.427,0,0,0,2.048-.387,5.224,5.224,0,0,0,1.674-1.068,5.3,5.3,0,0,0,1.147-1.607,5.216,5.216,0,0,0,.485-1.984V19.19a5.261,5.261,0,0,0-.408-2.052,5.423,5.423,0,0,0-1.13-1.716,5.358,5.358,0,0,0-1.7-1.169,5.212,5.212,0,0,0-2.116-.429A4.668,4.668,0,0,0,138.2,14.254Zm-82.02,15.6a10.887,10.887,0,0,1-2.643-1.1,11.4,11.4,0,0,1-2.243-1.715,10.533,10.533,0,0,1-1.734-2.229,11.343,11.343,0,0,1-1.113-2.649,11.263,11.263,0,0,1,0-5.946,11.141,11.141,0,0,1,1.113-2.649,10.61,10.61,0,0,1,1.734-2.22,11.12,11.12,0,0,1,7.835-3.187,11.524,11.524,0,0,1,3.425.487A10.683,10.683,0,0,1,65.5,10.091l-.051-.05a1.976,1.976,0,0,1,.6.513,1.184,1.184,0,0,1,.221.732,1.157,1.157,0,0,1-.2.623l-1.512,2.54a1.363,1.363,0,0,1-1.156.824,1.192,1.192,0,0,1-.374-.075,2.128,2.128,0,0,1-.493-.261,7.786,7.786,0,0,0-1.606-.8,5.319,5.319,0,0,0-1.827-.312,4.534,4.534,0,0,0-1.971.429,4.634,4.634,0,0,0-1.538,1.169,5.5,5.5,0,0,0-.994,1.716,6.151,6.151,0,0,0,0,4.129,5.108,5.108,0,0,0,.994,1.673,4.665,4.665,0,0,0,3.509,1.531,4.891,4.891,0,0,0,1.818-.337,8.232,8.232,0,0,0,1.615-.858,1.2,1.2,0,0,1,.451-.21,1.827,1.827,0,0,1,.331-.042,1.171,1.171,0,0,1,.527.118,1.408,1.408,0,0,1,.493.5l1.9,2.842a2.527,2.527,0,0,1,.162.3.7.7,0,0,1,.076.269.849.849,0,0,1-.246.631,3.258,3.258,0,0,1-.535.429,12.826,12.826,0,0,1-3.05,1.539,10.54,10.54,0,0,1-3.51.581A11.152,11.152,0,0,1,56.179,29.854ZM6.33,29.383a10.177,10.177,0,0,1-3.348-2.346A10.793,10.793,0,0,1,.79,23.53,11.8,11.8,0,0,1,0,19.19a11.778,11.778,0,0,1,.79-4.348,10.806,10.806,0,0,1,2.193-3.5A10.065,10.065,0,0,1,6.33,9.007a10.524,10.524,0,0,1,4.257-.849,8.452,8.452,0,0,1,1.708.16A6.075,6.075,0,0,1,14.879,9.5a9.151,9.151,0,0,1,1.011.925V3.414a1.313,1.313,0,0,1,.331-.908,1.267,1.267,0,0,1,.994-.37H21.04a1.33,1.33,0,0,1,.467.093,1.562,1.562,0,0,1,.45.261,1.357,1.357,0,0,1,.332.4,1.079,1.079,0,0,1,.127.521V28.559q0,1.295-1.376,1.3H17.709a1.32,1.32,0,0,1-.527-.084.842.842,0,0,1-.315-.244,1.718,1.718,0,0,1-.229-.4q-.1-.244-.255-.563l-.323-.808a10.661,10.661,0,0,1-1.045.9,8.533,8.533,0,0,1-1.275.8,7.766,7.766,0,0,1-1.479.572,6.248,6.248,0,0,1-1.674.219A10.435,10.435,0,0,1,6.33,29.383ZM9.016,14.254a4.693,4.693,0,0,0-1.555,1.169,5.286,5.286,0,0,0-.994,1.716,6.287,6.287,0,0,0,0,4.129,4.92,4.92,0,0,0,.994,1.673A4.713,4.713,0,0,0,9.016,24.06a4.821,4.821,0,0,0,2.014.412,5.427,5.427,0,0,0,2.048-.387,5.224,5.224,0,0,0,1.674-1.068A5.3,5.3,0,0,0,15.9,21.41a5.217,5.217,0,0,0,.485-1.984V19.19a5.261,5.261,0,0,0-.408-2.052,5.422,5.422,0,0,0-1.13-1.716,5.358,5.358,0,0,0-1.7-1.169,5.214,5.214,0,0,0-2.116-.429A4.668,4.668,0,0,0,9.016,14.254Zm112.178,15.6a1.129,1.129,0,0,1-1.258-1.3V9.805a1.447,1.447,0,0,1,.306-.925,1.14,1.14,0,0,1,.952-.387h3.892a1.227,1.227,0,0,1,.442.093,1.508,1.508,0,0,1,.442.269,1.742,1.742,0,0,1,.348.412,1.006,1.006,0,0,1,.145.538V28.559a1.251,1.251,0,0,1-.357.967,1.458,1.458,0,0,1-1.02.328Zm-14.48,0a1.764,1.764,0,0,1-.961-.194,1.148,1.148,0,0,1-.416-.53L97.5,10.159a1.379,1.379,0,0,1-.128-1.177q.213-.488,1.011-.488h4.351a1.3,1.3,0,0,1,.773.236,1.251,1.251,0,0,1,.468.673q.289.891.637,2t.731,2.279q.382,1.169.756,2.321t.688,2.119q.314.968.561,1.682t.366,1.018l3.6-11.42a1.55,1.55,0,0,1,.5-.724,1.428,1.428,0,0,1,.79-.185h4.47a1.848,1.848,0,0,1,.747.118.631.631,0,0,1,.34.32.781.781,0,0,1,.034.462,2.913,2.913,0,0,1-.17.547l-8.09,19.19a2.054,2.054,0,0,1-.442.513,1.182,1.182,0,0,1-.765.211Zm14.48-23.883q-1.257,0-1.258-1.4V1.3a1.352,1.352,0,0,1,.306-1A1.332,1.332,0,0,1,121.194,0h3.943a1.483,1.483,0,0,1,.96.294,1.215,1.215,0,0,1,.366,1V4.574a1.2,1.2,0,0,1-.093.438,1.884,1.884,0,0,1-.263.454,1.432,1.432,0,0,1-.416.361,1.082,1.082,0,0,1-.552.143Z" fill="#7f72cd"/>
</svg>
