<svg xmlns="http://www.w3.org/2000/svg" width="631" height="313" viewBox="0 0 631 313">
  <g id="Group_8334" data-name="Group 8334" transform="translate(-390 -597)">
    <rect id="Rectangle_1795" data-name="Rectangle 1795" width="631" height="313" transform="translate(390 597)" fill="#eb4e4e"/>
    <g id="Group_1728" data-name="Group 1728" transform="translate(578.826 656.684)">
      <path id="Path_1443" data-name="Path 1443" d="M182.942,151.255c13.6-18.061,37.909-28.944,60.632-24.61,15.247,2.907,28.531,12.034,39.351,22.783s19.6,23.209,29.361,34.863c7.863,9.393,16.317,18.921,25.816,26.83,3.538,2.945,8.425,5.95,13.328,4.98v25.428c-13.361-1.432-25.989-7.8-36.184-16.366-11.573-9.724-20.354-22.133-28.25-34.821-6.434-10.341-12.483-21.11-21.323-29.645S244.5,146.028,232.089,147.61c-8.456,1.077-16.151,5.659-21.951,11.683s-9.853,13.424-13.045,21.042c-3.422,8.17-5.828,17.8-1.369,25.5,4.675,8.065,15.966,12.179,17.8,21.245,1.481,7.326-4.906,14.739-12.516,16.137s-15.542-2.257-20.654-7.864-7.8-12.9-9.476-20.183C165.856,193.382,169.339,169.317,182.942,151.255Z" transform="translate(-168.693 -125.695)" fill="#2c1e1b"/>
      <g id="Group_1725" data-name="Group 1725" transform="translate(16.621 8.789)">
        <path id="Path_1444" data-name="Path 1444" d="M322.268,163.482c.412.178.521-.139.724-.246.214-.054.219.187.4.238a3.412,3.412,0,0,0,2.271-1.051,10.275,10.275,0,0,0,1.045-2.615,2.976,2.976,0,0,0-1.072-.258c-4.161,2.443-2.269,1.653-3.375,3.637C322.223,163.26,322.264,163.377,322.268,163.482Z" transform="translate(-314.979 -135.55)" fill="#444f5e"/>
        <path id="Path_1445" data-name="Path 1445" d="M313.882,146.789a13.916,13.916,0,0,0-.872,1.747c1.07.7,1.577.319,3.92-.946a4.254,4.254,0,0,0,.825-1.847l-.694-.383a3.438,3.438,0,0,0-2.529,1.029C314.35,146.6,314.075,146.606,313.882,146.789Z" transform="translate(-296.738 -135.103)" fill="#444f5e"/>
        <path id="Path_1446" data-name="Path 1446" d="M306.993,137.913a13.95,13.95,0,0,0-.873,1.747c1.07.7,1.578.319,3.92-.947a4.243,4.243,0,0,0,.825-1.846l-.694-.383a3.433,3.433,0,0,0-2.528,1.03C307.46,137.72,307.186,137.73,306.993,137.913Z" transform="translate(-282.921 -134.824)" fill="#444f5e"/>
        <path id="Path_1447" data-name="Path 1447" d="M290.921,137.488c1.239.68,1,.61,3.9-.526a4.826,4.826,0,0,0,1.16-1.71,6.926,6.926,0,0,1-.635-.447,5.213,5.213,0,0,0-1.457.051,2.256,2.256,0,0,0-1.15.575c-.5.413-.756.162-.976.662a4.057,4.057,0,0,1-.5.746A4.676,4.676,0,0,0,290.921,137.488Z" transform="translate(-252.757 -134.77)" fill="#444f5e"/>
        <path id="Path_1448" data-name="Path 1448" d="M306.525,144.815c1.238.68,1,.61,3.9-.526a4.816,4.816,0,0,0,1.159-1.709,6.915,6.915,0,0,1-.633-.448,5.256,5.256,0,0,0-1.458.051,2.257,2.257,0,0,0-1.149.575c-.5.414-.756.162-.976.663a4.139,4.139,0,0,1-.5.745A4.622,4.622,0,0,0,306.525,144.815Z" transform="translate(-284.048 -135)" fill="#444f5e"/>
        <path id="Path_1449" data-name="Path 1449" d="M322.475,156.548a5.686,5.686,0,0,0-.591,1.681c1.018.678,1.847.021,3.466-1.12a3.648,3.648,0,0,0,.926-2.095c-.212-.073-.418-.154-.632-.212a2.906,2.906,0,0,0-2.318.937C323.1,156,322.822,156.223,322.475,156.548Z" transform="translate(-314.18 -135.4)" fill="#444f5e"/>
        <path id="Path_1450" data-name="Path 1450" d="M312.833,144.17a4.609,4.609,0,0,0,2.709-.6c1.306-1.889,1.379-1.862,1.214-2.154-1.075-.438-1.461-.547-3.325.3a1.028,1.028,0,0,0-.445.494c-.321.7-.875.814-.812,1.583Z" transform="translate(-294.957 -134.969)" fill="#444f5e"/>
        <path id="Path_1451" data-name="Path 1451" d="M333.9,164.866c-.362-.212-.627-.634-1.2-.6l-.285.417c-.408.1-.581.427-1.5,1.534a1.1,1.1,0,0,1-.265.731,3.209,3.209,0,0,0-.464,1.5c.232.227.322.146,2.426-.816.573-.262.4-.149.918-.747C333.537,166.217,334.062,165.653,333.9,164.866Z" transform="translate(-330.191 -135.699)" fill="#444f5e"/>
      </g>
      <g id="Group_1726" data-name="Group 1726" transform="translate(104.869 25.192)">
        <path id="Path_1452" data-name="Path 1452" d="M220.819,197.073c.125-.308.5-.951.111-1.521-.582-.853-1.081-2.324-1.82-2.482a11.481,11.481,0,0,0-1.827-.559l-.235.543c.33,2.02.26,2.766,3.464,3.967A1.9,1.9,0,0,0,220.819,197.073Z" transform="translate(-191.85 -152.992)" fill="#444f5e"/>
        <path id="Path_1453" data-name="Path 1453" d="M203.686,214.718c-1.261-1.19-1.737-2.071-2.634-2.076-.972-.007-1.072-.354-1.77-.141.016,2.472,1.953,3.751,4.329,3.636C204.116,215.742,203.88,215.292,203.686,214.718Z" transform="translate(-156.801 -153.619)" fill="#444f5e"/>
        <path id="Path_1454" data-name="Path 1454" d="M198.625,222.758c-1.26-1.19-1.737-2.07-2.634-2.076-.972-.007-1.072-.353-1.77-.141.016,2.472,1.953,3.752,4.329,3.637C199.055,223.783,198.819,223.333,198.625,222.758Z" transform="translate(-146.652 -153.873)" fill="#444f5e"/>
        <path id="Path_1455" data-name="Path 1455" d="M212.609,207.074c.457-.361.257-.81.321-1.241-.781-1.006-1.578-2.456-2.242-2.526a12.662,12.662,0,0,1-1.7-.479.666.666,0,0,0-.129.012c-.046.072-.172.174-.165.268C208.906,206.051,209.8,206.3,212.609,207.074Z" transform="translate(-175.283 -153.317)" fill="#444f5e"/>
        <path id="Path_1456" data-name="Path 1456" d="M193.773,224.181a1.721,1.721,0,0,0-.1-1.366,6.562,6.562,0,0,1-1.224-1.04,2.723,2.723,0,0,0-1.615-.937c-.554.217-.907-.057-1.643-.046-.379.221-.063.439.237.717-.36.643.076,1.121.453,1.528C190.489,223.695,191.025,224.1,193.773,224.181Z" transform="translate(-136.446 -153.883)" fill="#444f5e"/>
        <path id="Path_1457" data-name="Path 1457" d="M202.516,207.755a17.821,17.821,0,0,0-1.929-.5c-.065.277-.128.538-.2.83.2.978.466,1.131,1.82,2.829a6.928,6.928,0,0,0,2.1.541c.088-.239.17-.467.256-.7C204,208.385,203.313,208.813,202.516,207.755Z" transform="translate(-158.567 -153.456)" fill="#444f5e"/>
        <path id="Path_1458" data-name="Path 1458" d="M190.632,215.853c-.013.424-.023.769-.034,1.121a10.582,10.582,0,0,0,2,2.278,5.373,5.373,0,0,0,2.157.35l.223-.684c-.493-1.621-1.1-1.827-2.326-2.734A8.109,8.109,0,0,0,190.632,215.853Z" transform="translate(-139.136 -153.727)" fill="#444f5e"/>
        <path id="Path_1459" data-name="Path 1459" d="M207.672,202.408l.721-.437c.343-.983-.15-1.433-.924-2.151a10.812,10.812,0,0,0-3.27-1.344.42.42,0,0,0-.072.509c.965,2.378.988,2.629,1.533,2.833A10.6,10.6,0,0,0,207.672,202.408Z" transform="translate(-166.209 -153.18)" fill="#444f5e"/>
        <path id="Path_1460" data-name="Path 1460" d="M207.935,214.581l.72-.437c.344-.983-.15-1.433-.923-2.151a10.826,10.826,0,0,0-3.27-1.344.419.419,0,0,0-.072.508c.965,2.378.987,2.629,1.533,2.833A10.6,10.6,0,0,0,207.935,214.581Z" transform="translate(-166.735 -153.563)" fill="#444f5e"/>
        <path id="Path_1461" data-name="Path 1461" d="M199.936,210.56c.221-.5-.064-.883-.271-1.288-2.293-1.731-1.374-.737-2.662-1.363a3.219,3.219,0,0,0-1.735-.261c-.078.374.01.457,1.519,2.933a5.74,5.74,0,0,0,2.546.437Z" transform="translate(-148.848 -153.468)" fill="#444f5e"/>
        <path id="Path_1462" data-name="Path 1462" d="M215.243,192.85l.722-.391c.391-1.274-.277-1.625-1.342-2.81a1.659,1.659,0,0,1-1.1-.454,4.622,4.622,0,0,0-1.38-.544c-.43.309,0,.459.5,2.565a1.429,1.429,0,0,0,.828,1.011A7.049,7.049,0,0,0,215.243,192.85Z" transform="translate(-181.721 -152.87)" fill="#444f5e"/>
        <path id="Path_1463" data-name="Path 1463" d="M210.774,201.56a6.933,6.933,0,0,0,1.931.8c.143-.237.282-.468.446-.74-.341-1.853-.6-1.791-1.68-3.077a9.687,9.687,0,0,0-1.817-.689C208.94,199.012,209.5,199.537,210.774,201.56Z" transform="translate(-176.153 -153.16)" fill="#444f5e"/>
        <path id="Path_1464" data-name="Path 1464" d="M182.233,223.576a7.587,7.587,0,0,0-2.086-.161c-.618,1.163,1.357,2.431,2.409,3.248a10.879,10.879,0,0,0,1.964.064c.063-.215.124-.423.2-.671C184.231,224.693,183.467,224.335,182.233,223.576Z" transform="translate(-118.245 -153.964)" fill="#444f5e"/>
        <path id="Path_1465" data-name="Path 1465" d="M185.461,215.645a1.111,1.111,0,0,0,.341.816c.637.7,1.037,1.517,1.392,1.936a6.535,6.535,0,0,0,2.623.326l.664-.705a4.984,4.984,0,0,0-.175-.724,1.952,1.952,0,0,0-1.255-.854.211.211,0,0,1-.133-.067,1.366,1.366,0,0,0-1.106-.4A8.065,8.065,0,0,0,185.461,215.645Z" transform="translate(-129.472 -153.721)" fill="#444f5e"/>
        <path id="Path_1466" data-name="Path 1466" d="M193.482,212.67c-1.729-.368-2-.538-2.3-.262-.319.641.05,1.2.248,1.756l1.206,1.213c.79.158,1.611.313,2.452.421a3.407,3.407,0,0,0,.11-1.151A3.8,3.8,0,0,0,193.482,212.67Z" transform="translate(-139.824 -153.614)" fill="#444f5e"/>
        <path id="Path_1467" data-name="Path 1467" d="M204.067,207.627c.079-.078.188-.137.21-.217a1.838,1.838,0,0,0,.018-1.1,3.935,3.935,0,0,0-1.623-2.128c-.689.027-1.272-.524-2.038-.341-.087.229-.174.456-.26.685a4.492,4.492,0,0,0,.6,1.524C201.871,207.167,201.554,206.927,204.067,207.627Z" transform="translate(-158.357 -153.348)" fill="#444f5e"/>
        <path id="Path_1468" data-name="Path 1468" d="M210.045,197.656l2.092.9c.235-.037.346-.146.366-.3a2.892,2.892,0,0,0-.307-2.01,4.9,4.9,0,0,0-.908-1.149c-1.654-.723-1.784-.9-2.114-.636-.076.183-.172.41-.255.611A3.688,3.688,0,0,0,210.045,197.656Z" transform="translate(-175.129 -153.049)" fill="#444f5e"/>
        <path id="Path_1469" data-name="Path 1469" d="M185.19,222.969a2.833,2.833,0,0,0-1.634-2.767c-.774-.42-.956-.071-1.795-.354a.864.864,0,0,0-.9.208l-.051.582.6,1.105c.8.742,1.033,1.1,1.814,1.1a5.478,5.478,0,0,1,1.683.168C184.967,223.033,185.05,222.992,185.19,222.969Z" transform="translate(-119.538 -153.852)" fill="#444f5e"/>
        <path id="Path_1470" data-name="Path 1470" d="M170.026,227.456a4.012,4.012,0,0,0,1.858,2.031c.314.191.709.138,2.39.186.33-.229.184-.51.007-1.249-1.573-2.226-2.564-1.437-3.363-1.758a.788.788,0,0,0-.831.179C170.068,227.026,170.047,227.243,170.026,227.456Z" transform="translate(-97.944 -154.066)" fill="#444f5e"/>
        <path id="Path_1471" data-name="Path 1471" d="M171.784,233.338c.636.044,1.276.065,1.926.058.432-1.2-.692-2.248-1.852-2.712-.21-.084-.406-.2-.632-.319-2.164-.2-.606-.184-1.883-.17C168.914,231.435,169.666,231.759,171.784,233.338Z" transform="translate(-96.476 -154.179)" fill="#444f5e"/>
        <path id="Path_1472" data-name="Path 1472" d="M180.141,227.987l-1.877.08c-.109.392.309.368.441.622l-.207.346a2.8,2.8,0,0,0,1.606,1.792.389.389,0,0,0,.141.06,7.489,7.489,0,0,0,2.239.187,2.319,2.319,0,0,1,.584-.782,2.287,2.287,0,0,0-1.5-1.193c-.258-.387-.717-.56-1-.925C180.46,228.038,180.2,228.012,180.141,227.987Z" transform="translate(-114.805 -154.11)" fill="#444f5e"/>
        <path id="Path_1473" data-name="Path 1473" d="M216.519,187.229l1.909,1.25.29-.087a3,3,0,0,0-.332-3.2l-1.488-.938-.823.374A3.588,3.588,0,0,0,216.519,187.229Z" transform="translate(-188.762 -152.732)" fill="#444f5e"/>
        <path id="Path_1474" data-name="Path 1474" d="M175.011,222.794c.023.6.3.444,1.3,1.926a3.143,3.143,0,0,0,.647.691,5.489,5.489,0,0,0,2.467.068,3.665,3.665,0,0,0,.416-1.189,8.591,8.591,0,0,1-1.2-.8c-.323-.191-.685-.322-1.095-.51l-.271.062A3.857,3.857,0,0,0,175.011,222.794Z" transform="translate(-108.325 -153.944)" fill="#444f5e"/>
        <path id="Path_1475" data-name="Path 1475" d="M195.71,212.323a7.882,7.882,0,0,0,1.159,2.086,1.4,1.4,0,0,0,.944.593c1.388.236,1.768.61,2.129-.109-.892-2.143-1.358-2.66-3.8-2.915C195.953,211.958,195.789,212.042,195.71,212.323Z" transform="translate(-149.239 -153.605)" fill="#444f5e"/>
        <path id="Path_1476" data-name="Path 1476" d="M208.637,206.556l.268-.231c.02-.156.043-.21.029-.252a9.188,9.188,0,0,0-.444-1.264,3.26,3.26,0,0,0-2.4-1.779,1.53,1.53,0,0,0-.9-.1.366.366,0,0,0-.1.475c.906,2.189.846,2.041,1.458,2.6C208.67,206.665,208.195,206.544,208.637,206.556Z" transform="translate(-167.623 -153.319)" fill="#444f5e"/>
        <path id="Path_1477" data-name="Path 1477" d="M213.749,192.983c-.177.128-.128.065-.215.24a6.961,6.961,0,0,0,.524,2.006,1.713,1.713,0,0,0,1.236,1.22c.708.175.931.57,1.562.406a3.133,3.133,0,0,0-1.287-3.163A4.862,4.862,0,0,0,213.749,192.983Z" transform="translate(-184.166 -153.007)" fill="#444f5e"/>
        <path id="Path_1478" data-name="Path 1478" d="M232.249,166.281c-.177.127-.128.064-.215.239a6.932,6.932,0,0,0,.525,2.006,1.714,1.714,0,0,0,1.236,1.221c.707.174.93.568,1.561.406a3.135,3.135,0,0,0-1.287-3.164A4.845,4.845,0,0,0,232.249,166.281Z" transform="translate(-221.266 -152.165)" fill="#444f5e"/>
        <path id="Path_1479" data-name="Path 1479" d="M189.75,222.878l.216-.291a3.478,3.478,0,0,0-3.695-2.613c-.247.009-.526-.062-.71.249.157.422,1.374,2.657,2.595,2.638C188.692,222.853,189.229,222.935,189.75,222.878Z" transform="translate(-129.06 -153.857)" fill="#444f5e"/>
        <path id="Path_1480" data-name="Path 1480" d="M174.826,227.172c1.6,3.647,2.409,2.032,3.587,2.651l.581-.173c.015-.113.081-.255.037-.344-1.353-2.714-2.588-2.017-3.489-2.341A.716.716,0,0,0,174.826,227.172Z" transform="translate(-107.346 -154.076)" fill="#444f5e"/>
        <path id="Path_1481" data-name="Path 1481" d="M227.135,183.757c-.857-.881-.041-.655-1.244-1.7l-.12-.539-1.121-.859c-.392.007-.1.4.062.721l-.526.268a2.827,2.827,0,0,0,.166,1.656l.588.324c-.017.134-.032.251-.052.4l.248.266.453.014c.209.3.187.817.773.8.081-.12.16-.239.243-.362l.374.011C227.212,184.455,227.11,184.125,227.135,183.757Z" transform="translate(-204.983 -152.618)" fill="#444f5e"/>
        <path id="Path_1482" data-name="Path 1482" d="M240.258,162.81c-.857-.882-.041-.655-1.245-1.7-.056-.254-.093-.42-.119-.538l-1.121-.859c-.393.007-.1.4.062.72l-.526.268a2.829,2.829,0,0,0,.166,1.657l.588.323c-.017.135-.032.252-.052.4l.247.267.454.013c.209.3.186.818.772.8.081-.119.161-.238.243-.362l.375.011C240.335,163.507,240.233,163.178,240.258,162.81Z" transform="translate(-231.3 -151.958)" fill="#444f5e"/>
        <path id="Path_1483" data-name="Path 1483" d="M195.454,217.567l-.561.176c.03.412.845,1.231,1.334,1.518,2.025.39,1.751.348,2.275.056a2.969,2.969,0,0,0-1.165-2.166l-.883-.267-.448-.367-.821-.023c-.375.236-.007.437.19.754A1.156,1.156,0,0,1,195.454,217.567Z" transform="translate(-146.977 -153.748)" fill="#444f5e"/>
        <path id="Path_1484" data-name="Path 1484" d="M207.885,210.927l.249-.45c-.447-2.4-1.109-1.784-2.276-2.859a1.291,1.291,0,0,0-.807,0c-.179.348.213.566.157.867-.143.168-.486.076-.526.412a10.989,10.989,0,0,0,1.021,1.459A16.756,16.756,0,0,0,207.885,210.927Z" transform="translate(-166.451 -153.466)" fill="#444f5e"/>
        <path id="Path_1485" data-name="Path 1485" d="M214.082,198.86l-.444-.046a3.827,3.827,0,0,0,.932,1.808l1.919.755c.093-.119.216-.206.232-.309a2.24,2.24,0,0,0-.965-2.474c-.775-.375-.337-.7-1.6-.975l-.2.167C213.912,198.172,214.389,198.471,214.082,198.86Z" transform="translate(-184.084 -153.153)" fill="#444f5e"/>
        <path id="Path_1486" data-name="Path 1486" d="M186.492,224.715c-.394-.033-.794-.015-1.05-.327a3.445,3.445,0,0,0-.986-.02c-.4.384.3.56.349,1.052-.028.135-.147.1-.238.121-.072.016-.143.042-.255.076.2.508.636.822,1.447,1.421l2.02.057a.315.315,0,0,0,.164-.4C187.451,225.276,187.531,225.468,186.492,224.715Z" transform="translate(-125.798 -153.995)" fill="#444f5e"/>
        <path id="Path_1487" data-name="Path 1487" d="M218.183,189.707l.094.47.558.532c-.047.193-.086.357-.127.521a.893.893,0,0,0,.75.72c.271-.194.661-.287.886-.654.009-.3.019-.618.029-.939-.768-1.795-.855-1.407-2.768-2.576-.089.019-.125.016-.136.031-.086.119-.167.242-.253.37l.182.845Z" transform="translate(-191.291 -152.843)" fill="#444f5e"/>
        <path id="Path_1488" data-name="Path 1488" d="M243.968,153.632c.039.2.068.342.094.469l.558.533c-.046.193-.086.357-.126.52a.892.892,0,0,0,.75.721c.27-.194.66-.288.886-.654.009-.3.018-.618.028-.939-.768-1.794-.855-1.407-2.768-2.575-.088.018-.125.016-.135.031-.087.119-.168.242-.254.37l.183.846Z" transform="translate(-243.001 -151.706)" fill="#444f5e"/>
        <path id="Path_1489" data-name="Path 1489" d="M174.281,231.3l-.738.02c-.157.137-.17.289-.073.363.316.243.455.679.9.737.1.3-.214.351-.527.469.146.506.633.644.994.968,1.916.054,2.03.148,2.2-.253-.284-1.2-1.133-2-1.679-1.963A2.228,2.228,0,0,1,174.281,231.3Z" transform="translate(-103.913 -154.214)" fill="#444f5e"/>
        <path id="Path_1490" data-name="Path 1490" d="M220.58,182.253a2.184,2.184,0,0,1,.358,1.819c-.1.125-.2.076-.3.053a1.321,1.321,0,0,0-.237-.01c.141,1.262,1.22,1.168,1.874,1.942l.478-.187c.22-1.6.087-2.667-1.753-3.685A.33.33,0,0,0,220.58,182.253Z" transform="translate(-196.96 -152.665)" fill="#444f5e"/>
        <path id="Path_1491" data-name="Path 1491" d="M226.865,173.966a2.182,2.182,0,0,1,.358,1.818c-.1.125-.2.077-.295.053a1.454,1.454,0,0,0-.237-.009c.14,1.261,1.22,1.168,1.873,1.941l.477-.186c.22-1.6.089-2.667-1.753-3.685A.33.33,0,0,0,226.865,173.966Z" transform="translate(-209.565 -152.404)" fill="#444f5e"/>
        <path id="Path_1492" data-name="Path 1492" d="M220.907,181.576a4.253,4.253,0,0,0-1.054-2.213l-.36-.031c-.317-.209-.339-.85-.884-1.083-.039.251-.039.251.191.734-.006.356-.418.339-.592.632-.227.86.685,1.781.928,2.1.226,0,.414-.083.626.021.2.1.458.059.619.31Z" transform="translate(-192.786 -152.542)" fill="#444f5e"/>
        <path id="Path_1493" data-name="Path 1493" d="M224.791,179.612a4.25,4.25,0,0,0-1.054-2.212l-.36-.031c-.317-.21-.339-.851-.885-1.083-.038.25-.038.25.192.733-.006.356-.418.34-.592.632-.227.86.684,1.781.928,2.1.226,0,.414-.083.626.021.2.1.458.059.619.311Z" transform="translate(-200.575 -152.481)" fill="#444f5e"/>
        <path id="Path_1494" data-name="Path 1494" d="M221.677,186.761a1.046,1.046,0,0,0-.1.761l.367.5c-.017.338-.282.328-.669.408-.029.79.142,1.01.927,1.214.184.162.374.328.565.493.017.015.047.014.113.031a1.336,1.336,0,0,0,.554-.453c.394-1.4-.238-1.665-1.246-2.79Z" transform="translate(-198.559 -152.811)" fill="#444f5e"/>
        <path id="Path_1495" data-name="Path 1495" d="M233.241,162.042a1.041,1.041,0,0,0-.1.761l.367.5c-.017.337-.281.327-.669.407-.03.791.141,1.011.927,1.215.184.161.373.327.565.492.016.015.047.015.112.032a1.349,1.349,0,0,0,.555-.453c.393-1.4-.238-1.665-1.246-2.79Z" transform="translate(-221.748 -152.032)" fill="#444f5e"/>
      </g>
      <g id="Group_1727" data-name="Group 1727" transform="translate(9.916 66.016)">
        <path id="Path_1496" data-name="Path 1496" d="M328.259,213.979c-1,.684-.68,1.438-.461,2.77.056.345.368,1.468.907,1.741.713.362.646.731,1.406.887l.3-.359C331.112,216.081,330.413,215.807,328.259,213.979Z" transform="translate(-317.586 -194.493)" fill="#444f5e"/>
        <path id="Path_1497" data-name="Path 1497" d="M332.763,207.966l.6-.341c.412-1.041.97-1.492.6-2.981a8.834,8.834,0,0,0-1.407-2.213c-.425-.233-.541.035-1.117.7.043,2.553-.306,1.238,0,3.152C331.908,206.817,332.292,207.4,332.763,207.966Z" transform="translate(-324.753 -194.126)" fill="#444f5e"/>
        <path id="Path_1498" data-name="Path 1498" d="M340.578,205.274a9.055,9.055,0,0,0-1.441-1.742c-.222-.06-.477.195-.6-.084-.459.034-.6.354-.8.607a3.956,3.956,0,0,0,.4,2.59c.556.627.543,1.2,1.37,2.044.186.028.243-.091.28-.208a6.7,6.7,0,0,0,.446-1.578C340.253,206.484,340.7,206.58,340.578,205.274Z" transform="translate(-337.664 -194.161)" fill="#444f5e"/>
        <path id="Path_1499" data-name="Path 1499" d="M334.96,216.716l-.877.148-.359.453c-.058,1.054-.053.884.693,2.308.92.945,1.723,1.89,2.165,1.931a.557.557,0,0,0,.248-.513c.119-2.356.2-2.723-.492-3.309A7.279,7.279,0,0,0,334.96,216.716Z" transform="translate(-329.991 -194.579)" fill="#444f5e"/>
        <path id="Path_1500" data-name="Path 1500" d="M335.839,211.975c.845-1.336.8-1,.06-3.94a6.817,6.817,0,0,0-1.681-1.375c-1.344,1.111-.436,2.879.052,4.016A7.707,7.707,0,0,0,335.839,211.975Z" transform="translate(-329.358 -194.262)" fill="#444f5e"/>
        <path id="Path_1501" data-name="Path 1501" d="M337.981,195.433a12.186,12.186,0,0,0-1.188-1.574c-1.361.23-1.459,2.163-1.126,3.073a2.537,2.537,0,0,1,.034.715c1.107,1.657.788,1.215,1.181,1.563.351-.08.514-.363.748-.488C338.07,197.863,337.974,197.521,337.981,195.433Z" transform="translate(-332.88 -193.859)" fill="#444f5e"/>
        <path id="Path_1502" data-name="Path 1502" d="M337.014,214.922l.473.106c.16-.185.3-.353.435-.506a3.9,3.9,0,0,0-.156-2.7c-.125-.29-.292-.359-1.852-1.61-.913-.148-1.231,2.878.015,3.8C336.272,214.272,336.587,214.561,337.014,214.922Z" transform="translate(-332.589 -194.374)" fill="#444f5e"/>
        <path id="Path_1503" data-name="Path 1503" d="M338.923,196.737a2.463,2.463,0,0,0-1.215,2.244c.037,1.135-.158.884,1.265,2.757.053.07.171.095.286.156l.665-.459a3.847,3.847,0,0,0,.422-2.791Z" transform="translate(-337.542 -193.95)" fill="#444f5e"/>
        <path id="Path_1504" data-name="Path 1504" d="M331.072,220.09a4.808,4.808,0,0,0-1.833-.7c-.245.227-.255.565-.391.862a2.632,2.632,0,0,1,.132.5c.069,1.215,1.846,2.742,3.179,3.023C332.9,222.6,332.428,222.2,331.072,220.09Z" transform="translate(-320.709 -194.663)" fill="#444f5e"/>
        <path id="Path_1505" data-name="Path 1505" d="M332.715,227.222c.559-.666.157-.948.314-1.674-.689-1.154-.759-1.435-1.417-1.683-.749-.282-1.248-.608-1.758-.766a1.829,1.829,0,0,0-.27,1.429,3.664,3.664,0,0,0,1.227,2.013C331.621,226.829,332.195,227.291,332.715,227.222Z" transform="translate(-321.915 -194.78)" fill="#444f5e"/>
        <path id="Path_1506" data-name="Path 1506" d="M321.993,225.026l-.839.506c0,.092-.053.232,0,.325a2.945,2.945,0,0,0,.751,1.19c.273.2.12.709,1.075,1.155l.205.462c.547.075.921.609,1.525.578.2-.335-.209-.423-.247-.693l.354-.352v-.843C324.23,226.376,324.219,225.86,321.993,225.026Z" transform="translate(-305.254 -194.841)" fill="#444f5e"/>
        <path id="Path_1507" data-name="Path 1507" d="M335.969,200.557a.631.631,0,0,0-.733.4c-1.223,2.39.207,3.652,1.068,4.529a.733.733,0,0,0,.451-.469,4.781,4.781,0,0,0,.372-1.433c0-.385.36-1-.109-1.64C336.678,201.482,336.326,201.027,335.969,200.557Z" transform="translate(-331.405 -194.07)" fill="#444f5e"/>
        <path id="Path_1508" data-name="Path 1508" d="M331.863,216.238a4.466,4.466,0,0,0,1.8,1.494.331.331,0,0,0,.286-.337c.375-3.062.008-2.895-1.837-4.343l-.474.229A4.329,4.329,0,0,0,331.863,216.238Z" transform="translate(-324.937 -194.464)" fill="#444f5e"/>
        <path id="Path_1509" data-name="Path 1509" d="M330.615,208.971c-.829.364-.614,1.737-.356,2.592.291.3.679.579.713,1.079l.787.577.2-.1c.174-.369-.118-.68.139-.983l.4.144c.212-.075.232-.255.213-.426a5.119,5.119,0,0,0-.371-1.591C330.577,208.757,331.007,209.092,330.615,208.971Z" transform="translate(-322.1 -194.335)" fill="#444f5e"/>
        <path id="Path_1510" data-name="Path 1510" d="M326.474,227.858c1.64.893,1.31.8,1.95.74-.025-.229-.049-.439-.074-.668l-.3-.332.318-.534c-.117-.442-.227-1.4-1.177-1.643-1.054-.268-.929-.641-1.485-.524-.4.166-.37.463-.065,1.635A5.044,5.044,0,0,0,326.474,227.858Z" transform="translate(-313.165 -194.836)" fill="#444f5e"/>
        <path id="Path_1511" data-name="Path 1511" d="M329.413,232.741l.169-.073c.156-.411-.268-.558-.389-.821.118-.335.476-.283.712-.469-.075-.444-.3-.863-.381-1.319-.016-.087-.111-.162-.179-.257l-.552-.058c-.107-.151-.22-.315-.332-.474a2.584,2.584,0,0,1-.594-.136c-.181-.089-.327-.241-.553-.225-.584.437-.584.437-.756,1C327.253,230.948,326.436,230.9,329.413,232.741Zm-1.992-3.641c.124.107.12.057.022.189l-.122-.114Z" transform="translate(-315.802 -194.964)" fill="#444f5e"/>
        <path id="Path_1512" data-name="Path 1512" d="M333.679,201.151c.327-.252.24-.668.5-.963l.42.317a2.222,2.222,0,0,0,.215-.5,4.785,4.785,0,0,0-.015-1.554l-1.076-1.458a.472.472,0,0,0-.549-.026,2.644,2.644,0,0,0-.671,2.333C333.207,200.163,332.664,200.839,333.679,201.151Z" transform="translate(-326.689 -193.954)" fill="#444f5e"/>
        <path id="Path_1513" data-name="Path 1513" d="M325.515,220.658a2.938,2.938,0,0,0,.672,2.282,2.546,2.546,0,0,1,1.023.8,2.32,2.32,0,0,0,.884.2,3.051,3.051,0,0,0-.581-1.449c.17-.233.369-.055.559-.125l.144-.152a2.391,2.391,0,0,0-.44-.93C325.9,220.569,326.194,220.4,325.515,220.658Z" transform="translate(-313.064 -194.7)" fill="#444f5e"/>
        <path id="Path_1514" data-name="Path 1514" d="M326.5,232.729c-.116-.232-.177-.353-.245-.487-.219.151-.2.3-.075.442C326.209,232.719,326.3,232.7,326.5,232.729Z" transform="translate(-311.926 -195.068)" fill="#444f5e"/>
      </g>
    </g>
    <g id="Group_1733" data-name="Group 1733" transform="translate(627.751 728.008) rotate(98)">
      <path id="Path_1520" data-name="Path 1520" d="M23.84,5.117A53.031,53.031,0,0,1,76.055,8.968c15.313,10.37,25.073,29.275,25.021,48.458-.034,12.633-4.07,25.031-10.3,35.823S76.18,113.32,67.113,121.581c-10.48,9.548-22.143,18.033-30.171,29.93s-11.667,28.625-4.407,41.06c-3.463.6-6.966-1.54-9.017-4.541s-2.888-6.728-3.4-10.387a71.34,71.34,0,0,1,10.163-47.4c10.563-16.644,27.9-28.045,36.391-45.96a56.028,56.028,0,0,0,1.635-43.233c-1.868-4.88-4.5-9.542-8.291-12.962s-8.861-5.487-13.81-4.8c-4.632.647-8.683,3.564-12.257,6.735s-6.922,6.719-11.033,9.059-11.727,2.545-15.867.263A13.858,13.858,0,0,1,1.23,21.576C4.76,14.128,16.774,8.545,23.84,5.117Z" transform="translate(0 0)" fill="#1b222c"/>
      <g id="Group_1731" data-name="Group 1731" transform="translate(49.593 4.505)">
        <path id="Path_1521" data-name="Path 1521" d="M0,.454C.811-.364,1.458.085,2.662.544c.311.118,1.3.628,1.466,1.19.213.742.568.749.583,1.5l-.386.211C1.463,3.553,1.33,2.84,0,.454Z" transform="translate(16.989 12.307)" fill="#444f5e"/>
        <path id="Path_1522" data-name="Path 1522" d="M5.16,2.178l-.422.5c-1.042.192-1.559.635-2.882,0A8.588,8.588,0,0,1,.037.924C-.106.477.164.419.887,0,3.258.526,2.094-.053,3.825.6,4.236,1.149,4.716,1.624,5.16,2.178Z" transform="translate(7.028 6.991)" fill="#444f5e"/>
        <path id="Path_1523" data-name="Path 1523" d="M1.375,2.924A8.921,8.921,0,0,1,0,1.229C-.017,1.007.265.814.027.645.138.217.461.147.732,0A3.765,3.765,0,0,1,3.077.871c.486.644,1.021.74,1.667,1.685-.006.181-.127.212-.243.225A6.2,6.2,0,0,1,2.953,2.9C2.56,2.847,2.572,3.287,1.375,2.924Z" transform="translate(9.157 0.904)" fill="#444f5e"/>
        <path id="Path_1524" data-name="Path 1524" d="M0,1.055l.291-.8L.776,0c.991.145.833.117,2.03,1.094.722,1.051,1.463,1.991,1.424,2.415a.514.514,0,0,1-.522.138c-2.216-.334-2.573-.329-3-1.094A7.224,7.224,0,0,1,0,1.055Z" transform="translate(20.45 6.813)" fill="#444f5e"/>
        <path id="Path_1525" data-name="Path 1525" d="M4.672,2.965C3.28,3.512,3.6,3.535.988,2.273A6.731,6.731,0,0,1,0,.421c1.269-1.06,2.759.135,3.734.813A7.612,7.612,0,0,1,4.672,2.965Z" transform="translate(11.392 5.492)" fill="#444f5e"/>
        <path id="Path_1526" data-name="Path 1526" d="M1.261,2.316A11.8,11.8,0,0,1,0,.893C.451-.352,2.269-.077,3.059.411a2.4,2.4,0,0,0,.66.169c1.353,1.363,1,.977,1.252,1.415-.135.317-.428.417-.585.615C3.51,2.863,3.207,2.707,1.261,2.316Z" transform="translate(0 1.766)" fill="#444f5e"/>
        <path id="Path_1527" data-name="Path 1527" d="M4.2,2.452c0,.064.009.257.017.468-.2.116-.382.221-.547.316a3.673,3.673,0,0,1-2.487-.66C.931,2.4.895,2.232,0,.516.021-.375,2.9-.1,3.543,1.254,3.72,1.627,3.935,1.98,4.2,2.452Z" transform="translate(14.867 4.598)" fill="#444f5e"/>
        <path id="Path_1528" data-name="Path 1528" d="M0,.793A2.286,2.286,0,0,1,2.3.07c1.051.251.851.018,2.35,1.721a.923.923,0,0,1,.1.3c-.189.19-.374.373-.543.542A3.594,3.594,0,0,1,1.531,2.5Z" transform="translate(3.037 0)" fill="#444f5e"/>
        <path id="Path_1529" data-name="Path 1529" d="M.356,2.074A4.758,4.758,0,0,1,.02.206C.274.017.591.072.891,0a2.457,2.457,0,0,0,.447.22C2.458.517,3.573,2.488,3.6,3.8,2.374,4.28,2.088,3.758.356,2.074Z" transform="translate(22.223 11.524)" fill="#444f5e"/>
        <path id="Path_1530" data-name="Path 1530" d="M3.346,3.629c-.718.4-.911-.031-1.615-.02C.775,2.737.525,2.617.408,1.947.276,1.185.059.652,0,.137A1.719,1.719,0,0,1,1.379.152,3.59,3.59,0,0,1,3.042,1.7C3.17,2.519,3.5,3.151,3.346,3.629Z" transform="translate(25.697 11.715)" fill="#444f5e"/>
        <path id="Path_1531" data-name="Path 1531" d="M0,.7.618,0C.7.014.843-.006.921.058c.348.284.77.487.978.936.138.3.64.248.89,1.237l.4.282c-.026.533.407.988.274,1.554-.348.128-.358-.278-.6-.365l-.39.268-.785-.161C.869,3.071.391,2.962,0,.7Z" transform="translate(25.907 19.84)" fill="#444f5e"/>
        <path id="Path_1532" data-name="Path 1532" d="M0,.791A.6.6,0,0,1,.5.174c2.44-.7,3.369.89,4.036,1.871a.679.679,0,0,1-.514.336,4.443,4.443,0,0,1-1.4.08c-.359-.074-1,.15-1.51-.415C.738,1.637.376,1.217,0,.791Z" transform="translate(5.934 3.718)" fill="#444f5e"/>
        <path id="Path_1533" data-name="Path 1533" d="M3.014.773a4.419,4.419,0,0,1,1.08,1.99.31.31,0,0,1-.364.206C.81,2.742,1.03,2.426,0,.405L.3,0A4.092,4.092,0,0,1,3.014.773Z" transform="translate(16.759 8.878)" fill="#444f5e"/>
        <path id="Path_1534" data-name="Path 1534" d="M0,.372C.483-.342,1.727.121,2.477.528c.228.331.422.752.882.879l.4.856-.124.169c-.374.094-.614-.24-.941-.055.021.13.043.266.065.4-.107.187-.278.171-.435.12A4.871,4.871,0,0,1,.908,2.247C-.193.3.044.766,0,.372Z" transform="translate(12.843 9.426)" fill="#444f5e"/>
        <path id="Path_1535" data-name="Path 1535" d="M2.688,1.5c.547,1.721.519,1.392.35,1.987l-.609-.2-.258-.349-.553.2C1.227,2.947.353,2.66.293,1.714.225.665-.144.713.062.209.286-.137.557-.053,1.6.458A4.916,4.916,0,0,1,2.688,1.5Z" transform="translate(26.46 16.328)" fill="#444f5e"/>
        <path id="Path_1536" data-name="Path 1536" d="M3.22,3.241l-.1.146c-.409.069-.474-.361-.7-.525-.333.047-.347.4-.561.584C1.464,3.291,1.112,3,.7,2.835.623,2.8.57,2.7.492,2.617c.014-.171.028-.34.042-.533C.412,1.954.28,1.815.15,1.68a2.473,2.473,0,0,0-.023-.588C.076.9-.04.737.014.525.524.055.524.055,1.075,0,1.923.856,2.018.073,3.22,3.241ZM.172.664C.25.8.205.787.345.72L.259.583Z" transform="translate(30.308 15.779)" fill="#444f5e"/>
        <path id="Path_1537" data-name="Path 1537" d="M3.936,1.665c-.291.262-.665.1-.984.291l.222.458a2.089,2.089,0,0,1-.5.109,4.478,4.478,0,0,1-1.446-.31L.05.918A.462.462,0,0,1,.121.393,2.462,2.462,0,0,1,2.412.2C3.1,1.031,3.821.647,3.936,1.665Z" transform="translate(2.238 5.274)" fill="#444f5e"/>
        <path id="Path_1538" data-name="Path 1538" d="M.184,0A2.819,2.819,0,0,1,2.2,1.069,2.51,2.51,0,0,0,2.767,2.19a2.273,2.273,0,0,1,.036.874,2.943,2.943,0,0,1-1.25-.825c-.247.116-.116.338-.213.5l-.167.108a2.321,2.321,0,0,1-.79-.594C.036.343-.17.593.184,0Z" transform="translate(22.528 15.676)" fill="#444f5e"/>
        <path id="Path_1539" data-name="Path 1539" d="M.411.44,0,.115c.179-.178.314-.13.426.013C.453.164.422.25.411.44Z" transform="translate(32.84 19.469)" fill="#444f5e"/>
      </g>
      <g id="Group_1732" data-name="Group 1732" transform="translate(30.791 83.16)">
        <path id="Path_1540" data-name="Path 1540" d="M.062,4.468c-.189-.387.108-.509.2-.709.04-.208-.189-.2-.246-.374A3.327,3.327,0,0,1,.9,1.143,9.7,9.7,0,0,1,3.331,0a2.886,2.886,0,0,1,.3,1.018C1.511,5.152,2.169,3.289.341,4.457.273,4.5.162,4.467.062,4.468Z" transform="translate(39.31 15.498)" fill="#444f5e"/>
        <path id="Path_1541" data-name="Path 1541" d="M.062,4.469c-.189-.388.107-.509.2-.709C.3,3.55.072,3.558.014,3.384A3.332,3.332,0,0,1,.9,1.143,9.771,9.771,0,0,1,3.331,0a2.9,2.9,0,0,1,.3,1.019C1.51,5.153,2.169,3.29.341,4.458.274,4.5.162,4.467.062,4.469Z" transform="translate(0 61.962)" fill="#444f5e"/>
        <path id="Path_1542" data-name="Path 1542" d="M2.474,0l.7.251c.047.126.106.286.168.452-.613,1.6-.423.824-.606,1.575a1.372,1.372,0,0,1-.311.656c-.336.347-.214.828-.754.91-.667.1-.817.5-1.432.691C.021,4.2.268,4,.362,3.763l-.31-.186C-.354,1.551,1.71.145,2.474,0Z" transform="translate(46.514 6.059)" fill="#444f5e"/>
        <path id="Path_1543" data-name="Path 1543" d="M.311,3.144.126,2.928A2.865,2.865,0,0,1,1.173.7,13.707,13.707,0,0,1,3.108,0l.7.379c.283.6-.421,1.4-.924,1.767l-.075.347C1.258,4.337,1.9,3.072.443,3.881c-.159.088-.316.1-.426-.071C-.078,3.49.247,3.393.311,3.144Z" transform="translate(31.277 24.707)" fill="#444f5e"/>
        <path id="Path_1544" data-name="Path 1544" d="M.311,3.144.126,2.928A2.866,2.866,0,0,1,1.173.7,13.869,13.869,0,0,1,3.108,0l.7.379c.283.6-.421,1.4-.924,1.767l-.075.347C1.258,4.338,1.9,3.072.443,3.882c-.159.088-.316.1-.426-.071C-.078,3.49.247,3.393.311,3.144Z" transform="translate(7.761 52.088)" fill="#444f5e"/>
        <path id="Path_1545" data-name="Path 1545" d="M1.979,3.649a13.154,13.154,0,0,1-1.712.712c-.591-1.079-.2-1.54,1.155-3.7A3.981,3.981,0,0,1,3.225,0l.316.695A3.309,3.309,0,0,1,2.4,3.051C2.192,3.213,2.165,3.476,1.979,3.649Z" transform="translate(46.612 10.65)" fill="#444f5e"/>
        <path id="Path_1546" data-name="Path 1546" d="M.343,4.7C-.22,3.465-.169,3.7,1.1.992A4.515,4.515,0,0,1,2.793,0a6.686,6.686,0,0,0,.383.642,5.145,5.145,0,0,1-.144,1.4A2.171,2.171,0,0,1,2.411,3.1c-.424.448-.2.715-.692.891a3.813,3.813,0,0,0-.738.429A4.36,4.36,0,0,1,.343,4.7Z" transform="translate(53.197 0)" fill="#444f5e"/>
        <path id="Path_1547" data-name="Path 1547" d="M2.288,3.322C.617,4.044.619,4.122.236,4,.159,3.788.07,3.54,0,3.347.083,2.893.153,2.5.228,2.09L.962.845,3.013,0a.448.448,0,0,1,.33.41C3.528,1.8,2.982,2.359,2.288,3.322Z" transform="translate(47.08 14.326)" fill="#444f5e"/>
        <path id="Path_1548" data-name="Path 1548" d="M.1,3.6A2.95,2.95,0,0,1,1.527.469C3.381-.1,3.148.015,3.541,0a3.111,3.111,0,0,1-.9,2.781c-.545.71-.872.406-1.689.816A.863.863,0,0,1,.1,3.6Z" transform="translate(39.214 24.212)" fill="#444f5e"/>
        <path id="Path_1549" data-name="Path 1549" d="M1.839,3.544a5.326,5.326,0,0,1-1.631.447C-.367,2.964.309,2.214,1.5.739A3.408,3.408,0,0,1,3.541,0c.055.21.119.414.16.623a2.8,2.8,0,0,1-1.04,2.161C2.4,2.982,2.171,3.234,1.839,3.544Z" transform="translate(39.073 20.456)" fill="#444f5e"/>
        <path id="Path_1550" data-name="Path 1550" d="M0,3.648a4.467,4.467,0,0,1,.744-2.56C2.623-.031,2.6-.1,2.868.075c.344,1.066.422,1.444-.507,3.176a.972.972,0,0,1-.5.393c-.687.257-.828.782-1.552.667Z" transform="translate(54.088 3.631)" fill="#444f5e"/>
        <path id="Path_1551" data-name="Path 1551" d="M3.028,0,3.8.8l-.023.369-.383.25c-.049.178-.107.391-.167.609A7.646,7.646,0,0,1,.083,4.105C-.128,3.682.1,3.379.371,2.476S.571,1.05,1.24.691A3.726,3.726,0,0,1,3.028,0Z" transform="translate(43.738 19.761)" fill="#444f5e"/>
        <path id="Path_1552" data-name="Path 1552" d="M3.028,0,3.8.8c-.006.1-.015.224-.024.369l-.383.25-.166.61A7.649,7.649,0,0,1,.083,4.105C-.128,3.681.1,3.379.372,2.476S.571,1.05,1.24.691A3.726,3.726,0,0,1,3.028,0Z" transform="translate(3.772 53.782)" fill="#444f5e"/>
        <path id="Path_1553" data-name="Path 1553" d="M3.431.023c.208.344.614.591.593,1.14l-.39.285c-.087.394-.4.569-1.428,1.479a1.039,1.039,0,0,0-.689.271A3.016,3.016,0,0,1,.1,3.677c-.22-.219-.145-.307.728-2.355C1.07.764.967.93,1.523.421,2.157.406,2.682-.113,3.431.023Z" transform="translate(35.267 29.232)" fill="#444f5e"/>
        <path id="Path_1554" data-name="Path 1554" d="M3.106,1.347a1.618,1.618,0,0,1-.745,1.312L2.2,3.105c-.819.253-.94.96-2.133,1.221-.234-.4.266-1.153.328-2.219.013-.222.029-.443.043-.643L.876.891A8.741,8.741,0,0,1,2.692,0c.245.27.486.535.743.817.011.077.026.172.045.3Z" transform="translate(51.418 9.439)" fill="#444f5e"/>
        <path id="Path_1555" data-name="Path 1555" d="M0,4.076C.305.778.47,1.177,2.316,0c.3-.036.43.124.54.41A4,4,0,0,1,1.728,3.371C1.017,3.659.9,4.135,0,4.076Z" transform="translate(50.221 5.607)" fill="#444f5e"/>
        <path id="Path_1556" data-name="Path 1556" d="M0,3.848c-.019-1.077.4-2.842,1.306-3.26C1.776.37,2.266.2,2.776,0L3.1.211A3.407,3.407,0,0,1,0,3.848Z" transform="translate(43.093 15.693)" fill="#444f5e"/>
        <path id="Path_1557" data-name="Path 1557" d="M3.38.28A3.643,3.643,0,0,1,2.343,2.614c-.134.137-.265.323-.429.374-.4.126-1.572.667-1.906.4A5.433,5.433,0,0,1,.787,1.08C1.175.44,1.467.415,2.809.028,3-.026,3.186-.032,3.38.28Z" transform="translate(35.043 25.151)" fill="#444f5e"/>
        <path id="Path_1558" data-name="Path 1558" d="M2.613.042a2.384,2.384,0,0,1-.469,2.38c-.336.4-.541.066-1.039.838-.025.039-.073.061-.151.124L.31,3.429C.236,3.023.29,2.848.689,2.144.533,1.876.278,2.076,0,2.219A1.9,1.9,0,0,1,1.269.474C2.091.109,2.264-.092,2.613.042Z" transform="translate(43.444 11.496)" fill="#444f5e"/>
        <path id="Path_1559" data-name="Path 1559" d="M2.809.168a3.169,3.169,0,0,1-.772,2.218L1.231,2.7.89,3.129l-.873.047c.036-.42-.128-.07.617-1.269,0-.143-.125-.144-.243-.16C.258,1.729.143,1.924,0,1.781.114,1.274.114,1.274.718.5,2.334,0,2.55-.153,2.809.168Z" transform="translate(36.037 20.93)" fill="#444f5e"/>
        <path id="Path_1560" data-name="Path 1560" d="M.613,2.213.095,2.154C-.132,1.935.079,1.616.41.907L2.049,0c.226.069.091-.045.439.4C2.441,2.17,2.618,1.785.981,3.421L.328,3.7C.15,3.5.214,3.511.613,2.213Z" transform="translate(50.096 1.404)" fill="#444f5e"/>
        <path id="Path_1561" data-name="Path 1561" d="M.65,1.415.1,1.368C.039,1.28.013,1.259.016,1.241.078.854-.1.45.089.041A1.1,1.1,0,0,1,1.417.727C1.249,1.04.942,1.183.65,1.415Z" transform="translate(27.99 38.461)" fill="#444f5e"/>
        <path id="Path_1562" data-name="Path 1562" d="M.826.15A.542.542,0,0,1,.047.374C-.146.051.293.017.678,0,.721,0,.768.088.826.15Z" transform="translate(32.2 34.655)" fill="#444f5e"/>
        <path id="Path_1563" data-name="Path 1563" d="M.218,0C.371.287.371.287.209.513L0,.3Z" transform="translate(33.095 30.515)" fill="#444f5e"/>
        <path id="Path_1564" data-name="Path 1564" d="M0,.07c.093-.1.185-.079.3-.018C.089.265.089.267,0,.07Z" transform="translate(28.098 36.01)" fill="#444f5e"/>
        <path id="Path_1565" data-name="Path 1565" d="M0,.049.029,0,.086.052C.018.089.04.084,0,.049Z" transform="translate(28.604 31.317)" fill="#444f5e"/>
      </g>
    </g>
    <g id="Group_1719" data-name="Group 1719" transform="translate(549.636 715.375)">
      <g id="Group_1718" data-name="Group 1718" transform="translate(0 0)">
        <path id="Path_1435" data-name="Path 1435" d="M1193.759,939.776c-6.481.484-9.72.743-16.2,1.293q.051-26.6.1-53.2a6.527,6.527,0,0,0-.646-2.894,7.544,7.544,0,0,0-1.751-2.332,7.94,7.94,0,0,0-2.574-1.542,8.555,8.555,0,0,0-3.171-.518,8.652,8.652,0,0,0-3.173.635,8.268,8.268,0,0,0-2.581,1.66,7.691,7.691,0,0,0-1.731,2.444,7.212,7.212,0,0,0-.628,2.98q-.045,27.113-.09,54.226c-6.5.619-9.742.945-16.232,1.631q.035-27.688.07-55.375a7.259,7.259,0,0,0-.619-3.01,7.427,7.427,0,0,0-1.724-2.422,7.849,7.849,0,0,0-2.575-1.6,8.224,8.224,0,0,0-3.17-.53,8.359,8.359,0,0,0-3.172.673,8.24,8.24,0,0,0-2.577,1.741,8.078,8.078,0,0,0-1.729,2.559,7.841,7.841,0,0,0-.625,3.115q-.02,28.317-.041,56.635c-6.484.752-9.725,1.145-16.2,1.963V889.9a24.161,24.161,0,0,1,24.363-24.362,25.22,25.22,0,0,1,8.723,1.54,24.264,24.264,0,0,1,7.529,4.4,23.672,23.672,0,0,1,7.512-4.428,25.2,25.2,0,0,1,8.7-1.51,25.944,25.944,0,0,1,9.487,1.737,24.96,24.96,0,0,1,7.753,4.717,22.028,22.028,0,0,1,5.2,6.974,19.552,19.552,0,0,1,1.881,8.527Q1193.813,913.633,1193.759,939.776Z" transform="translate(-1112.721 -865.536)" fill="#fff"/>
        <path id="Path_1436" data-name="Path 1436" d="M1280.158,936.03c-6.515.175-9.772.279-16.287.52.009-5.6.014-8.4.022-13.995q-16.28.485-32.551,1.237c-.012,5.719-.017,8.58-.029,14.3-6.486.374-9.729.577-16.213,1.017q.046-21.725.09-43.45a25.892,25.892,0,0,1,2.574-11.335,29.554,29.554,0,0,1,6.959-9.257,32.672,32.672,0,0,1,10.325-6.189,35.428,35.428,0,0,1,12.667-2.245,36.139,36.139,0,0,1,12.66,2.191,33.776,33.776,0,0,1,10.333,5.962,28.237,28.237,0,0,1,6.96,8.815,23.581,23.581,0,0,1,2.539,10.8Q1280.182,915.215,1280.158,936.03Zm-16.245-27.422c.009-5.6.012-8.4.021-13.995a11.932,11.932,0,0,0-1.268-5.421,13.957,13.957,0,0,0-3.479-4.427,16.546,16.546,0,0,0-5.18-2.958,18.521,18.521,0,0,0-12.638.136,16.819,16.819,0,0,0-5.191,3.115,14.715,14.715,0,0,0-3.494,4.606,12.664,12.664,0,0,0-1.285,5.579c-.012,5.72-.017,8.58-.029,14.3Q1247.638,908.974,1263.913,908.608Z" transform="translate(-1123.132 -865.647)" fill="#fff"/>
        <path id="Path_1437" data-name="Path 1437" d="M1380.99,936.109c-6.492-.2-9.739-.286-16.232-.42q-.022-24.7-.044-49.406a5.8,5.8,0,0,0-.655-2.7,7.281,7.281,0,0,0-1.759-2.2,8.279,8.279,0,0,0-2.58-1.48,9.769,9.769,0,0,0-6.348-.02,8.2,8.2,0,0,0-2.578,1.46,6.815,6.815,0,0,0-1.728,2.183,5.929,5.929,0,0,0-.623,2.69q.012,24.613.024,49.225c-6.517-.069-9.776-.087-16.293-.089q0-24.582,0-49.163a5.942,5.942,0,0,0-.623-2.688,6.887,6.887,0,0,0-1.729-2.185,8.242,8.242,0,0,0-2.578-1.463,9.8,9.8,0,0,0-6.349.006,8.252,8.252,0,0,0-2.579,1.47,6.892,6.892,0,0,0-1.729,2.19,5.937,5.937,0,0,0-.625,2.692q-.011,24.609-.021,49.217c-6.517.064-9.776.113-16.292.244q.022-24.7.044-49.389a17.827,17.827,0,0,1,1.906-8.084,20.945,20.945,0,0,1,5.219-6.612,25,25,0,0,1,7.765-4.432,28.65,28.65,0,0,1,18.216-.241,24.667,24.667,0,0,1,7.537,3.963,24.785,24.785,0,0,1,7.506-3.963,28.494,28.494,0,0,1,18.188.248,24.947,24.947,0,0,1,7.769,4.456,21.08,21.08,0,0,1,5.22,6.657,18.058,18.058,0,0,1,1.91,8.14Q1380.958,911.258,1380.99,936.109Z" transform="translate(-1131.73 -865.536)" fill="#fff"/>
        <path id="Path_1438" data-name="Path 1438" d="M1468.364,918.337a18.787,18.787,0,0,1-1.908,8.469,20.217,20.217,0,0,1-5.225,6.643,22.8,22.8,0,0,1-7.724,4.177,25.341,25.341,0,0,1-9.462,1.089q-20.325-1.232-40.662-2.084-.054-35-.109-70.009,20.313.012,40.624.029a25.727,25.727,0,0,1,9.466,1.733,24.984,24.984,0,0,1,7.743,4.745,22.657,22.657,0,0,1,5.255,7.05,19.792,19.792,0,0,1,1.943,8.623,14.988,14.988,0,0,1-.614,4.2,18.572,18.572,0,0,1-1.749,4.106,16.837,16.837,0,0,1-2.712,3.546,14.2,14.2,0,0,1-3.506,2.579,13.153,13.153,0,0,1,3.575,2.771,19.665,19.665,0,0,1,2.726,3.784,19.09,19.09,0,0,1,1.736,4.272A16.5,16.5,0,0,1,1468.364,918.337Zm-48.777-23.4c9.75.194,14.624.306,24.37.562a8.808,8.808,0,0,0,3.172-.47,7.837,7.837,0,0,0,2.575-1.471,6.822,6.822,0,0,0,1.724-2.283,6.817,6.817,0,0,0-.012-5.691,7.346,7.346,0,0,0-1.733-2.33,8.277,8.277,0,0,0-2.582-1.579,9,9,0,0,0-3.174-.6c-9.745-.132-14.619-.19-24.367-.29Zm.052,28.255c9.753.381,14.629.6,24.377,1.1a8.778,8.778,0,0,0,3.173-.389,7.611,7.611,0,0,0,2.575-1.4,6.637,6.637,0,0,0,1.725-2.211,6.33,6.33,0,0,0,.616-2.8,6.728,6.728,0,0,0-.629-2.864,7.637,7.637,0,0,0-1.732-2.377,8.612,8.612,0,0,0-2.582-1.646,9.125,9.125,0,0,0-3.175-.679c-9.748-.379-14.622-.545-24.374-.833C1419.623,914.727,1419.628,917.548,1419.639,923.189Z" transform="translate(-1142.269 -865.646)" fill="#fff"/>
        <path id="Path_1439" data-name="Path 1439" d="M1550.315,948.038c-6.479-.818-9.719-1.211-16.2-1.963,0-6.349-.007-9.524-.011-15.873q-16.22-1.508-32.465-2.75l.025,15.2c-6.473-.616-9.71-.908-16.187-1.458q-.042-22.338-.085-44.676a26.6,26.6,0,0,1,2.527-11.554,30.25,30.25,0,0,1,6.923-9.428,33.223,33.223,0,0,1,10.3-6.417,33.631,33.631,0,0,1,12.659-2.377,32.274,32.274,0,0,1,23.007,9.42,32.754,32.754,0,0,1,6.966,10.41,32.219,32.219,0,0,1,2.547,12.744Zm-16.226-33.654c0-6.35-.006-9.525-.011-15.874a15.529,15.529,0,0,0-1.278-6.216,16.465,16.465,0,0,0-3.486-5.157,16.722,16.722,0,0,0-5.184-3.509,16.967,16.967,0,0,0-12.628-.3,16.1,16.1,0,0,0-5.177,3.158,14.861,14.861,0,0,0-3.476,4.762,13.739,13.739,0,0,0-1.264,5.863c.01,6.079.016,9.119.025,15.2Q1517.856,913.245,1534.089,914.384Z" transform="translate(-1150.619 -865.658)" fill="#fff"/>
      </g>
    </g>
    <g id="Group_1730" data-name="Group 1730" transform="translate(765.948 740.767)">
      <path id="Path_1515" data-name="Path 1515" d="M125.007,217.568a12.168,12.168,0,0,0,6.326.554c4.186-.837,7.847-3.132,12.121-3.982,7.161-1.426,14.445-2.453,21.731-3.218,3.137-.329,6.711-.483,9.023,1.433,3.018,2.5,2.077,6.958.246,10.246-6.8,12.215-22.533,19.314-37.845,19.266a58.966,58.966,0,0,1-12.793-1.49V218.4C124.219,218.136,124.617,217.859,125.007,217.568Z" transform="translate(-123.815 -210.721)" fill="#1b222c"/>
      <path id="Path_1516" data-name="Path 1516" d="M132.714,225.293a.98.98,0,0,1,.352-.587,2.049,2.049,0,0,1,1.276-.952,2.756,2.756,0,0,1,1.336-.518.982.982,0,0,1,.859.015.565.565,0,0,1,.269.486,1.227,1.227,0,0,1-.351,1.208,2.436,2.436,0,0,1-.618.7,3.145,3.145,0,0,1-1.5.824,1.374,1.374,0,0,1-.905-.19.974.974,0,0,1-.3-.074.8.8,0,0,1-.244-.089A.534.534,0,0,1,132.714,225.293Z" transform="translate(-93.318 -212.056)" fill="#b1c2d3"/>
      <g id="Group_1729" data-name="Group 1729" transform="translate(1.584 14.183)">
        <path id="Path_1517" data-name="Path 1517" d="M170.026,227.39a3.816,3.816,0,0,0,1.853,1.872c.313.176.707.128,2.383.171.329-.211.183-.47.007-1.151-1.569-2.051-2.556-1.325-3.353-1.62a.834.834,0,0,0-.829.165C170.068,226.993,170.047,227.193,170.026,227.39Z" transform="translate(-170.026 -226.612)" fill="#444f5e"/>
        <path id="Path_1518" data-name="Path 1518" d="M171.777,233.091c.635.04,1.272.06,1.921.054.431-1.1-.69-2.072-1.847-2.5-.21-.078-.405-.187-.63-.294-2.157-.188-.6-.169-1.878-.157C168.915,231.338,169.665,231.636,171.777,233.091Z" transform="translate(-168.56 -226.996)" fill="#444f5e"/>
        <path id="Path_1519" data-name="Path 1519" d="M164.262,230.742a8.278,8.278,0,0,0,1.966,1.3,1.532,1.532,0,0,0,1.114.137c1.357-.328,1.865-.161,1.872-.9-1.75-1.449-2.4-1.7-4.715-.992A.342.342,0,0,0,164.262,230.742Z" transform="translate(-158.99 -226.966)" fill="#444f5e"/>
      </g>
    </g>
    <text id="_labs_" data-name="&lt;labs/&gt;" transform="translate(866 838)" fill="#1e252f" font-size="37" font-family="CourierNewPS-BoldMT, Courier New" font-weight="700"><tspan x="-77.713" y="0">&lt;labs/&gt;</tspan></text>
  </g>
</svg>
