<svg xmlns="http://www.w3.org/2000/svg" xmlns:xlink="http://www.w3.org/1999/xlink" width="631" height="313" viewBox="0 0 631 313">
  <defs>
    <clipPath id="clip-mamba">
      <rect width="631" height="313"/>
    </clipPath>
  </defs>
  <g id="mamba" clip-path="url(#clip-mamba)">
    <rect width="631" height="313" fill="#eb4e4e"/>
    <g id="Group_8515" data-name="Group 8515" transform="translate(239.442 68.55)">
      <g id="Group_1801" data-name="Group 1801" transform="translate(0.122 0)">
        <path id="Path_1623" data-name="Path 1623" d="M137.412-40.194H112.78v-88.193a11.788,11.788,0,0,0-.99-4.823,12.819,12.819,0,0,0-2.67-3.919,12.214,12.214,0,0,0-3.919-2.627,12.25,12.25,0,0,0-4.823-.947,12.25,12.25,0,0,0-4.823.947,12.213,12.213,0,0,0-3.919,2.627,12.213,12.213,0,0,0-2.627,3.919,12.249,12.249,0,0,0-.947,4.823v88.193H63.344v-88.193a12.249,12.249,0,0,0-.947-4.823,12.213,12.213,0,0,0-2.627-3.919,12.213,12.213,0,0,0-3.919-2.627,12.25,12.25,0,0,0-4.823-.947,12.25,12.25,0,0,0-4.823.947,12.213,12.213,0,0,0-3.919,2.627,12.213,12.213,0,0,0-2.627,3.919,12.249,12.249,0,0,0-.947,4.823v88.193H13.994v-88.193a36.366,36.366,0,0,1,2.885-14.426,37.1,37.1,0,0,1,7.924-11.8,37.1,37.1,0,0,1,11.8-7.924,36.366,36.366,0,0,1,14.426-2.885,36.591,36.591,0,0,1,13.263,2.455,35.983,35.983,0,0,1,11.455,7.105,36.108,36.108,0,0,1,11.412-7.105,36.251,36.251,0,0,1,13.22-2.455,36.366,36.366,0,0,1,14.426,2.885,37.1,37.1,0,0,1,11.8,7.924,37.1,37.1,0,0,1,7.924,11.8,36.366,36.366,0,0,1,2.885,14.426Z" transform="translate(-13.994 165.421)" fill="#fff"/>
      </g>
      <path id="Union_10" data-name="Union 10" d="M78,30.161V8.92a2.793,2.793,0,0,0-.243-1.161,3.072,3.072,0,0,0-.653-.943,2.985,2.985,0,0,0-.959-.634,3.177,3.177,0,0,0-2.36,0,2.985,2.985,0,0,0-.959.634,2.915,2.915,0,0,0-.874,2.1V30.161H65.9V8.92a2.923,2.923,0,0,0-.876-2.1,2.992,2.992,0,0,0-.958-.634,3.179,3.179,0,0,0-2.362,0,2.992,2.992,0,0,0-.958.634,2.934,2.934,0,0,0-.643.943,2.9,2.9,0,0,0-.233,1.161V30.161H53.823V8.92a8.647,8.647,0,0,1,.707-3.475A8.915,8.915,0,0,1,56.468,2.6,9.2,9.2,0,0,1,66.132.592a8.778,8.778,0,0,1,2.8,1.711A8.819,8.819,0,0,1,71.729.592,9.148,9.148,0,0,1,81.382,2.6a8.9,8.9,0,0,1,1.94,2.84,8.646,8.646,0,0,1,.706,3.475V30.161Zm-53.823,0V8.92a2.811,2.811,0,0,0-.243-1.161,3.092,3.092,0,0,0-.653-.943,3,3,0,0,0-.959-.634,3.177,3.177,0,0,0-2.36,0A2.984,2.984,0,0,0,19,6.815a2.916,2.916,0,0,0-.874,2.1V30.161h-6.05V8.92a2.915,2.915,0,0,0-.874-2.1,2.985,2.985,0,0,0-.959-.634,3.177,3.177,0,0,0-2.36,0,3,3,0,0,0-.959.634,2.93,2.93,0,0,0-.642.943A2.9,2.9,0,0,0,6.049,8.92V30.161H0V8.92A8.647,8.647,0,0,1,.707,5.445,8.914,8.914,0,0,1,2.646,2.6,9.2,9.2,0,0,1,12.31.592a8.791,8.791,0,0,1,2.8,1.711A8.805,8.805,0,0,1,17.906.592,9.06,9.06,0,0,1,29.5,5.445,8.647,8.647,0,0,1,30.2,8.92V30.161Zm96.169-.046c-.94,0-1.382,0-1.59-.231-.186-.2-.186-.592-.186-1.324V23.473c0-.958,0-1.384-.284-1.573a3.348,3.348,0,0,0-1.523-.151h-1.612c-.867,0-1.277,0-1.472.251-.176.226-.176.655-.176,1.473V28.56c0,.832,0,1.22-.242,1.4-.21.157-.6.157-1.336.157h-1.672c-.963,0-1.416,0-1.628-.24-.189-.213-.189-.616-.189-1.374V7.529a7.6,7.6,0,0,1,15.2,0V28.441c0,.831,0,1.25-.221,1.46s-.672.214-1.578.214ZM113.5,7.529v7.485c0,.823,0,1.252.187,1.475.208.248.649.241,1.58.241h1.611c.831,0,1.252,0,1.467-.2s.221-.618.221-1.459V7.529a2.533,2.533,0,0,0-5.066,0ZM89.987,30.115c-.971,0-1.422,0-1.633-.255-.183-.223-.183-.64-.183-1.418V1.674c0-.779,0-1.2.183-1.418C88.565,0,89.017,0,89.987,0h5.784a7.565,7.565,0,0,1,7.6,7.529v2.509a7.478,7.478,0,0,1-.811,3.366,2.749,2.749,0,0,0-.332,1.089,2,2,0,0,0,.417,1.008,7.491,7.491,0,0,1,1.57,4.575v2.51a7.565,7.565,0,0,1-7.6,7.528Zm3.468-12.332c-.218.213-.218.64-.218,1.488v4.083a3.037,3.037,0,0,0,.163,1.472c.19.27.6.27,1.484.27h1.731a2.521,2.521,0,0,0,2.533-2.509v-2.51a2.521,2.521,0,0,0-2.533-2.509H95C94.116,17.568,93.675,17.568,93.456,17.783ZM93.43,5.233c-.192.2-.192.6-.192,1.382v4.259c0,.794,0,1.21.181,1.431.2.244.627.244,1.525.244h.827a2.522,2.522,0,0,0,2.533-2.51V7.529a2.521,2.521,0,0,0-2.533-2.51h-.887C94.043,5.019,93.631,5.019,93.43,5.233ZM46.314,30.115c-.94,0-1.382,0-1.59-.231-.186-.2-.186-.592-.186-1.324V23.473c0-.958,0-1.384-.284-1.573a3.349,3.349,0,0,0-1.523-.151H41.119c-.867,0-1.277,0-1.472.251-.176.226-.176.655-.176,1.473V28.56c0,.832,0,1.22-.242,1.4-.21.157-.6.157-1.336.157H36.223c-.963,0-1.416,0-1.628-.24-.189-.213-.189-.616-.189-1.374V7.529a7.6,7.6,0,0,1,15.2,0V28.441c0,.831,0,1.25-.22,1.46s-.673.214-1.579.214ZM39.472,7.529v7.485c0,.823,0,1.252.187,1.475.208.248.649.242,1.58.242H42.85c.831,0,1.252,0,1.467-.2s.221-.618.221-1.459V7.529a2.533,2.533,0,0,0-5.066,0Z" transform="translate(0 138.044)" fill="#fff"/>
      <text id="_labs_" data-name="&lt;labs/&gt;" transform="translate(85.558 188.45)" fill="#fff" font-size="18" font-family="Courier"><tspan x="-37.806" y="0">&lt;labs/&gt;</tspan></text>
      <g id="Group_1804" data-name="Group 1804" transform="matrix(0.978, 0.208, -0.208, 0.978, 66.39, 11.791)">
        <path id="Path_1624" data-name="Path 1624" d="M67.875,51.152c-3.2-5.525-5.9-8.072-14.082-16.449S43.637,16.455,48.064,7.788,63.655.027,63.655.027l9.062,24.9s13.774,9.668,16.3,26.015S79.936,80.058,56.54,79.014,20.14,49.673,21.072,47.525s6.134-3.146,6.134-3.146-9.538-10.211-17.9-11.766S0,32.487,0,32.487A8.753,8.753,0,0,1,5.668,28.8c3.862-.686,9.779.942,9.779.942a17.78,17.78,0,0,1-1.255-4.087,8.2,8.2,0,0,1,.254-3.363L26.279,35.953,33,43.184s11.169-2.767,21.332,2.525S61.7,58.8,63.317,58.9,71.073,56.676,67.875,51.152Z" transform="translate(88.486 90.74) rotate(-172)" fill="#1b222c"/>
        <path id="Path_1625" data-name="Path 1625" d="M5.811,3.107a8.353,8.353,0,0,1-3.867-.62A4.284,4.284,0,0,1,0,.153a6.06,6.06,0,0,1,3.518.26A6.114,6.114,0,0,1,5.811,3.107Z" transform="matrix(-0.999, 0.035, -0.035, -0.999, 50.155, 29.702)" fill="#fff"/>
      </g>
    </g>
  </g>
</svg>
